<svg id="visual" viewBox="0 0 1600 700" width="1600" height="700" xmlns="http://www.w3.org/2000/svg" xmlns:xlink="http://www.w3.org/1999/xlink" version="1.1"><path d="M0 212L29.7 224.3C59.3 236.7 118.7 261.3 178 271C237.3 280.7 296.7 275.3 355.8 255.5C415 235.7 474 201.3 533.2 188C592.3 174.7 651.7 182.3 711 215C770.3 247.7 829.7 305.3 889 313.7C948.3 322 1007.7 281 1066.8 245.2C1126 209.3 1185 178.7 1244.2 175.8C1303.3 173 1362.7 198 1422 224.7C1481.3 251.3 1540.7 279.7 1570.3 293.8L1600 308L1600 701L1570.3 701C1540.7 701 1481.3 701 1422 701C1362.7 701 1303.3 701 1244.2 701C1185 701 1126 701 1066.8 701C1007.7 701 948.3 701 889 701C829.7 701 770.3 701 711 701C651.7 701 592.3 701 533.2 701C474 701 415 701 355.8 701C296.7 701 237.3 701 178 701C118.7 701 59.3 701 29.7 701L0 701Z" fill="#a3b8f6"></path><path d="M0 387L29.7 396.5C59.3 406 118.7 425 178 427.7C237.3 430.3 296.7 416.7 355.8 396.7C415 376.7 474 350.3 533.2 329.7C592.3 309 651.7 294 711 300.8C770.3 307.7 829.7 336.3 889 363.2C948.3 390 1007.7 415 1066.8 426C1126 437 1185 434 1244.2 418.5C1303.3 403 1362.7 375 1422 357.2C1481.3 339.3 1540.7 331.7 1570.3 327.8L1600 324L1600 701L1570.3 701C1540.7 701 1481.3 701 1422 701C1362.7 701 1303.3 701 1244.2 701C1185 701 1126 701 1066.8 701C1007.7 701 948.3 701 889 701C829.7 701 770.3 701 711 701C651.7 701 592.3 701 533.2 701C474 701 415 701 355.8 701C296.7 701 237.3 701 178 701C118.7 701 59.3 701 29.7 701L0 701Z" fill="#7989c6"></path><path d="M0 401L29.7 399.7C59.3 398.3 118.7 395.7 178 412.8C237.3 430 296.7 467 355.8 482.5C415 498 474 492 533.2 495.8C592.3 499.7 651.7 513.3 711 509.2C770.3 505 829.7 483 889 467.2C948.3 451.3 1007.7 441.7 1066.8 428C1126 414.3 1185 396.7 1244.2 412.3C1303.3 428 1362.7 477 1422 490.8C1481.3 504.7 1540.7 483.3 1570.3 472.7L1600 462L1600 701L1570.3 701C1540.7 701 1481.3 701 1422 701C1362.7 701 1303.3 701 1244.2 701C1185 701 1126 701 1066.8 701C1007.7 701 948.3 701 889 701C829.7 701 770.3 701 711 701C651.7 701 592.3 701 533.2 701C474 701 415 701 355.8 701C296.7 701 237.3 701 178 701C118.7 701 59.3 701 29.7 701L0 701Z" fill="#515d98"></path><path d="M0 529L29.7 543.2C59.3 557.3 118.7 585.7 178 597.8C237.3 610 296.7 606 355.8 587.2C415 568.3 474 534.7 533.2 534.8C592.3 535 651.7 569 711 583.7C770.3 598.3 829.7 593.7 889 593.3C948.3 593 1007.7 597 1066.8 590.8C1126 584.7 1185 568.3 1244.2 557.8C1303.3 547.3 1362.7 542.7 1422 534.2C1481.3 525.7 1540.7 513.3 1570.3 507.2L1600 501L1600 701L1570.3 701C1540.7 701 1481.3 701 1422 701C1362.7 701 1303.3 701 1244.2 701C1185 701 1126 701 1066.8 701C1007.7 701 948.3 701 889 701C829.7 701 770.3 701 711 701C651.7 701 592.3 701 533.2 701C474 701 415 701 355.8 701C296.7 701 237.3 701 178 701C118.7 701 59.3 701 29.7 701L0 701Z" fill="#2a356c"></path></svg>