<svg xmlns="http://www.w3.org/2000/svg" xmlns:svgjs="http://svgjs.com/svgjs" xmlns:xlink="http://www.w3.org/1999/xlink" width="288" height="288"><svg xmlns="http://www.w3.org/2000/svg" width="288" height="288" fill="none" viewBox="0 0 49 48"><rect width="47.999" height="47.999" x=".773" fill="#fde3d7" class="colorFDE3D7 svgShape" rx="24"/><path fill="#2a356c" fill-rule="evenodd" d="M17.6761 18.2999C19.1761 18.2999 20.3761 17.3999 20.3761 16.0999C20.2761 14.7999 19.1761 13.8999 17.6761 13.8999C16.1762 13.8999 15.0762 14.8999 15.0762 16.0999C15.0762 17.3999 16.1762 18.2999 17.6761 18.2999ZM30.3761 19.2001C28.8761 19.2001 27.6761 19.8001 26.9762 20.3001V19.7001C26.9762 19.5001 26.7762 19.3001 26.5762 19.3001H22.0762C21.8762 19.2001 21.6762 19.4001 21.6762 19.7001V32.4C21.6762 32.6 21.8762 32.8 22.0762 32.8H26.0762C26.2762 32.8 26.4762 32.6 26.4762 32.4V25.6C26.4762 24.6 27.2761 23.7001 28.2761 23.6001H28.4761H28.6761C29.6761 23.7001 30.4761 24.5 30.4761 25.6V32.4C30.4761 32.6 30.6761 32.8 30.8761 32.8H34.8761C35.0761 32.8 35.2761 32.6 35.2761 32.4V24.9C35.2761 22.1001 33.7761 19.2001 30.3761 19.2001ZM15.4763 19.2001H19.8762C20.1762 19.2001 20.3762 19.4001 20.2762 19.7001V32.4C20.2762 32.6 20.0762 32.8 19.8762 32.8H15.4763C15.2763 32.8 15.0763 32.6 15.0763 32.4V19.7001C15.0763 19.4001 15.2763 19.2001 15.4763 19.2001Z" class="color18362D svgShape" clip-rule="evenodd"/></svg></svg>