<?xml version="1.0" encoding="UTF-8" standalone="no"?>
<svg
   id="Calque_1"
   data-name="Calque 1"
   viewBox="0 0 63.909998 98.069997"
   version="1.1"
   sodipodi:docname="smartphone.svg"
   width="63.91"
   height="98.07"
   inkscape:version="1.1 (1:1.1+202105261517+ce6663b3b7)"
   xmlns:inkscape="http://www.inkscape.org/namespaces/inkscape"
   xmlns:sodipodi="http://sodipodi.sourceforge.net/DTD/sodipodi-0.dtd"
   xmlns="http://www.w3.org/2000/svg"
   xmlns:svg="http://www.w3.org/2000/svg">
  <defs
     id="defs347" />
  <sodipodi:namedview
     id="namedview345"
     pagecolor="#ffffff"
     bordercolor="#666666"
     borderopacity="1.0"
     inkscape:pageshadow="2"
     inkscape:pageopacity="0.0"
     inkscape:pagecheckerboard="0"
     showgrid="false"
     fit-margin-top="0"
     fit-margin-left="0"
     fit-margin-right="0"
     fit-margin-bottom="0"
     inkscape:zoom="3.2082962"
     inkscape:cx="-5.2987627"
     inkscape:cy="82.286668"
     inkscape:window-width="1920"
     inkscape:window-height="995"
     inkscape:window-x="0"
     inkscape:window-y="0"
     inkscape:window-maximized="1"
     inkscape:current-layer="g342" />
  <g
     id="g342"
     transform="translate(-104.82,-11.8)">
    <g
       id="g162">
      <rect
         x="104.82"
         y="11.8"
         width="63.91"
         height="98.07"
         style="fill:#ffffff"
         id="rect2" />
      <g
         id="g30">
        <path
           d="M 121.83,22 H 120 v 1 h 1.41 v 0.45 H 120 v 1.35 h -0.53 v -3.22 h 2.33 z"
           id="path4" />
        <path
           d="m 123.21,22.31 a 1.28,1.28 0 0 1 0.63,0.15 1,1 0 0 1 0.43,0.44 1.62,1.62 0 0 1 0,1.36 1,1 0 0 1 -0.43,0.44 1.28,1.28 0 0 1 -0.63,0.15 1.33,1.33 0 0 1 -0.63,-0.15 1.14,1.14 0 0 1 -0.43,-0.44 1.62,1.62 0 0 1 0,-1.36 1.14,1.14 0 0 1 0.43,-0.44 1.33,1.33 0 0 1 0.63,-0.15 z m 0,0.41 a 0.64,0.64 0 0 0 -0.37,0.1 0.7,0.7 0 0 0 -0.24,0.29 1.28,1.28 0 0 0 -0.08,0.47 1.32,1.32 0 0 0 0.08,0.47 0.76,0.76 0 0 0 0.24,0.29 0.73,0.73 0 0 0 0.37,0.1 0.7,0.7 0 0 0 0.37,-0.1 0.76,0.76 0 0 0 0.24,-0.29 1.32,1.32 0 0 0 0.08,-0.47 1.28,1.28 0 0 0 -0.08,-0.47 0.7,0.7 0 0 0 -0.24,-0.29 0.62,0.62 0 0 0 -0.37,-0.1 z"
           id="path6" />
        <path
           d="m 126,24.85 a 1,1 0 0 1 -0.44,-0.09 0.67,0.67 0 0 1 -0.32,-0.28 0.88,0.88 0 0 1 -0.13,-0.51 v -1.61 h 0.52 v 1.48 a 0.55,0.55 0 0 0 0.15,0.45 0.53,0.53 0 0 0 0.39,0.13 1,1 0 0 0 0.24,0 0.67,0.67 0 0 0 0.21,-0.13 0.57,0.57 0 0 0 0.14,-0.24 0.82,0.82 0 0 0 0.05,-0.33 v -1.36 h 0.52 v 2.44 h -0.45 v -0.4 a 0.75,0.75 0 0 1 -0.34,0.34 1.13,1.13 0 0 1 -0.54,0.11 z"
           id="path8" />
        <path
           d="m 128.1,24.8 v -2.44 h 0.44 l 0.05,0.44 a 0.75,0.75 0 0 1 0.29,-0.36 0.82,0.82 0 0 1 0.48,-0.13 h 0.14 0.13 l -0.08,0.46 a 0.35,0.35 0 0 0 -0.12,0 h -0.17 a 0.67,0.67 0 0 0 -0.3,0.08 0.64,0.64 0 0 0 -0.24,0.25 0.71,0.71 0 0 0 -0.1,0.41 v 1.29 z"
           id="path10" />
        <path
           d="m 130.12,24.8 v -2.44 h 0.46 v 0.63 l -0.07,-0.06 a 0.81,0.81 0 0 1 0.2,-0.35 0.78,0.78 0 0 1 0.3,-0.21 1.21,1.21 0 0 1 0.38,-0.06 1,1 0 0 1 0.47,0.1 0.8,0.8 0 0 1 0.33,0.3 1,1 0 0 1 0.12,0.51 v 1.58 h -0.52 v -1.42 a 0.66,0.66 0 0 0 -0.15,-0.5 0.53,0.53 0 0 0 -0.37,-0.14 0.72,0.72 0 0 0 -0.32,0.08 0.64,0.64 0 0 0 -0.25,0.24 0.92,0.92 0 0 0 -0.1,0.44 v 1.3 z"
           id="path12" />
        <path
           d="m 133.41,22 a 0.37,0.37 0 0 1 -0.27,-0.09 0.3,0.3 0 0 1 -0.09,-0.24 0.32,0.32 0 0 1 0.09,-0.24 0.41,0.41 0 0 1 0.27,-0.08 0.37,0.37 0 0 1 0.25,0.08 0.32,0.32 0 0 1 0.09,0.24 0.3,0.3 0 0 1 -0.09,0.24 0.33,0.33 0 0 1 -0.25,0.09 z m 0.25,0.41 v 2.39 h -0.52 v -2.44 z"
           id="path14" />
        <path
           d="m 134.48,24.8 v -2.44 h 0.46 v 0.41 a 0.77,0.77 0 0 1 0.34,-0.35 1,1 0 0 1 0.93,0 0.79,0.79 0 0 1 0.34,0.36 0.71,0.71 0 0 1 0.21,-0.27 1.08,1.08 0 0 1 0.3,-0.16 1.32,1.32 0 0 1 0.33,-0.05 1,1 0 0 1 0.44,0.1 0.68,0.68 0 0 1 0.33,0.3 0.88,0.88 0 0 1 0.13,0.51 v 1.59 h -0.52 v -1.5 a 0.58,0.58 0 0 0 -0.14,-0.43 0.52,0.52 0 0 0 -0.37,-0.13 0.68,0.68 0 0 0 -0.31,0.08 0.62,0.62 0 0 0 -0.23,0.25 0.82,0.82 0 0 0 -0.09,0.4 v 1.33 h -0.52 v -1.5 a 0.58,0.58 0 0 0 -0.14,-0.43 0.52,0.52 0 0 0 -0.36,-0.13 0.67,0.67 0 0 0 -0.3,0.08 0.61,0.61 0 0 0 -0.24,0.24 0.82,0.82 0 0 0 -0.1,0.44 v 1.3 z"
           id="path16" />
        <path
           d="m 140.18,24.85 a 1.34,1.34 0 0 1 -0.64,-0.15 1.07,1.07 0 0 1 -0.43,-0.44 1.62,1.62 0 0 1 0,-1.36 1,1 0 0 1 0.43,-0.44 1.24,1.24 0 0 1 0.62,-0.15 1.16,1.16 0 0 1 0.6,0.15 0.92,0.92 0 0 1 0.38,0.4 1.2,1.2 0 0 1 0.13,0.57 v 0.17 c 0,0 0,0.1 0,0.14 h -2 v -0.4 H 141 l -0.25,0.07 a 0.73,0.73 0 0 0 -0.17,-0.51 0.57,0.57 0 0 0 -0.45,-0.17 0.72,0.72 0 0 0 -0.37,0.09 0.7,0.7 0 0 0 -0.24,0.29 1.32,1.32 0 0 0 -0.08,0.47 1.28,1.28 0 0 0 0.08,0.47 0.63,0.63 0 0 0 0.63,0.38 0.76,0.76 0 0 0 0.4,-0.09 0.67,0.67 0 0 0 0.24,-0.26 l 0.41,0.2 a 0.83,0.83 0 0 1 -0.23,0.3 1,1 0 0 1 -0.36,0.2 1.25,1.25 0 0 1 -0.43,0.07 z"
           id="path18" />
        <path
           d="m 142.8,24.85 a 1,1 0 0 1 -0.44,-0.09 0.74,0.74 0 0 1 -0.33,-0.28 1,1 0 0 1 -0.12,-0.51 v -1.61 h 0.52 v 1.48 a 0.55,0.55 0 0 0 0.15,0.45 0.53,0.53 0 0 0 0.39,0.13 1,1 0 0 0 0.24,0 0.8,0.8 0 0 0 0.21,-0.13 0.57,0.57 0 0 0 0.14,-0.24 1,1 0 0 0 0.05,-0.33 v -1.36 h 0.52 v 2.44 h -0.46 v -0.4 a 0.75,0.75 0 0 1 -0.34,0.34 1.13,1.13 0 0 1 -0.53,0.11 z"
           id="path20" />
        <path
           d="m 146.26,24.85 a 1,1 0 0 1 -0.4,-0.08 1,1 0 0 1 -0.3,-0.24 1.06,1.06 0 0 1 -0.18,-0.33 l 0.07,-0.08 V 24.8 H 145 v -3.54 h 0.52 V 23 l -0.06,-0.08 a 0.88,0.88 0 0 1 0.86,-0.58 1,1 0 0 1 0.54,0.15 1.12,1.12 0 0 1 0.39,0.44 1.52,1.52 0 0 1 0.14,0.68 1.55,1.55 0 0 1 -0.14,0.68 1.12,1.12 0 0 1 -0.39,0.44 1.06,1.06 0 0 1 -0.6,0.12 z m -0.12,-0.42 a 0.6,0.6 0 0 0 0.5,-0.23 1.16,1.16 0 0 0 0,-1.24 0.58,0.58 0 0 0 -0.49,-0.23 0.61,0.61 0 0 0 -0.36,0.11 0.64,0.64 0 0 0 -0.23,0.3 1,1 0 0 0 -0.09,0.45 1.25,1.25 0 0 0 0.08,0.45 0.76,0.76 0 0 0 0.24,0.29 0.68,0.68 0 0 0 0.35,0.1 z"
           id="path22" />
        <path
           d="m 148.52,21.26 v 2.86 a 0.35,0.35 0 0 0 0.06,0.24 0.25,0.25 0 0 0 0.21,0.07 h 0.15 l 0.15,-0.05 -0.06,0.4 -0.19,0.06 h -0.21 a 0.62,0.62 0 0 1 -0.48,-0.17 0.77,0.77 0 0 1 -0.16,-0.52 v -2.9 z"
           id="path24" />
        <path
           d="m 150.61,24.85 a 1.36,1.36 0 0 1 -0.65,-0.15 1.07,1.07 0 0 1 -0.43,-0.44 1.62,1.62 0 0 1 0,-1.36 1,1 0 0 1 0.43,-0.44 1.26,1.26 0 0 1 0.62,-0.15 1.14,1.14 0 0 1 0.6,0.15 0.92,0.92 0 0 1 0.38,0.4 1.2,1.2 0 0 1 0.13,0.57 v 0.17 a 0.59,0.59 0 0 1 0,0.14 h -2 v -0.4 h 1.74 l -0.26,0.07 A 0.73,0.73 0 0 0 151,22.9 a 0.57,0.57 0 0 0 -0.45,-0.17 0.72,0.72 0 0 0 -0.37,0.09 0.7,0.7 0 0 0 -0.24,0.29 1.32,1.32 0 0 0 -0.08,0.47 1.09,1.09 0 0 0 0.09,0.47 0.68,0.68 0 0 0 0.24,0.29 0.8,0.8 0 0 0 0.39,0.09 0.75,0.75 0 0 0 0.39,-0.09 0.67,0.67 0 0 0 0.24,-0.26 l 0.42,0.2 a 1,1 0 0 1 -0.24,0.3 1,1 0 0 1 -0.36,0.2 1.23,1.23 0 0 1 -0.42,0.07 z"
           id="path26" />
        <path
           d="m 153.28,24.85 a 1.64,1.64 0 0 1 -0.67,-0.14 1.26,1.26 0 0 1 -0.48,-0.4 l 0.37,-0.32 a 0.77,0.77 0 0 0 0.3,0.32 1,1 0 0 0 0.49,0.12 0.74,0.74 0 0 0 0.36,-0.07 0.27,0.27 0 0 0 0.13,-0.22 0.25,0.25 0 0 0 -0.06,-0.17 0.54,0.54 0 0 0 -0.23,-0.11 l -0.52,-0.1 a 1,1 0 0 1 -0.55,-0.26 0.6,0.6 0 0 1 -0.17,-0.44 0.65,0.65 0 0 1 0.12,-0.37 0.77,0.77 0 0 1 0.34,-0.27 1.28,1.28 0 0 1 0.55,-0.11 1.32,1.32 0 0 1 0.62,0.13 1,1 0 0 1 0.4,0.37 l -0.36,0.3 a 0.66,0.66 0 0 0 -0.28,-0.29 0.81,0.81 0 0 0 -0.37,-0.09 1,1 0 0 0 -0.27,0 0.45,0.45 0 0 0 -0.17,0.11 0.25,0.25 0 0 0 -0.06,0.16 0.22,0.22 0 0 0 0.07,0.17 0.57,0.57 0 0 0 0.26,0.12 l 0.56,0.11 a 1,1 0 0 1 0.5,0.23 0.63,0.63 0 0 1 0.14,0.4 0.74,0.74 0 0 1 -0.12,0.42 0.81,0.81 0 0 1 -0.35,0.27 1.35,1.35 0 0 1 -0.55,0.13 z"
           id="path28" />
      </g>
      <g
         id="g44">
        <path
           d="M 111.37,46.23 V 44 h 0.9 a 0.88,0.88 0 0 1 0.6,0.17 0.56,0.56 0 0 1 0.19,0.46 0.53,0.53 0 0 1 -0.1,0.32 0.45,0.45 0 0 1 -0.3,0.17 v 0 a 0.52,0.52 0 0 1 0.34,0.18 0.52,0.52 0 0 1 0.12,0.34 0.56,0.56 0 0 1 -0.21,0.46 1,1 0 0 1 -0.62,0.17 z m 0.37,-1.3 h 0.5 c 0.29,0 0.44,-0.11 0.44,-0.33 0,-0.22 -0.15,-0.34 -0.44,-0.34 h -0.5 z m 0,1 h 0.56 a 0.5,0.5 0 0 0 0.33,-0.09 0.34,0.34 0 0 0 0,-0.5 0.5,0.5 0 0 0 -0.33,-0.09 h -0.56 z"
           id="path32" />
        <path
           d="M 114.22,46.27 A 0.78,0.78 0 0 1 113.91,46.2 0.5,0.5 0 0 1 113.68,46 0.64,0.64 0 0 1 113.59,45.64 V 44.5 H 114 v 1 a 0.43,0.43 0 0 0 0.1,0.32 0.41,0.41 0 0 0 0.28,0.09 0.47,0.47 0 0 0 0.17,0 l 0.15,-0.09 a 0.55,0.55 0 0 0 0.1,-0.17 0.75,0.75 0 0 0 0,-0.23 V 44.5 h 0.37 v 1.73 h -0.32 v -0.28 a 0.56,0.56 0 0 1 -0.24,0.24 0.8,0.8 0 0 1 -0.39,0.08 z"
           id="path34" />
        <path
           d="M 115.74,46.23 V 44.5 h 0.31 v 0.32 a 0.48,0.48 0 0 1 0.2,-0.26 0.62,0.62 0 0 1 0.34,-0.09 h 0.1 0.09 v 0.33 h -0.09 -0.12 a 0.42,0.42 0 0 0 -0.21,0.06 0.35,0.35 0 0 0 -0.17,0.17 0.5,0.5 0 0 0 -0.07,0.29 v 0.91 z"
           id="path36" />
        <path
           d="m 117.88,46.27 a 0.94,0.94 0 0 1 -0.45,-0.11 0.84,0.84 0 0 1 -0.31,-0.31 1.06,1.06 0 0 1 -0.11,-0.48 1,1 0 0 1 0.11,-0.48 0.81,0.81 0 0 1 0.3,-0.31 0.93,0.93 0 0 1 0.44,-0.11 0.83,0.83 0 0 1 0.43,0.1 0.69,0.69 0 0 1 0.27,0.29 0.87,0.87 0 0 1 0.09,0.4 v 0.12 c 0,0 0,0.07 0,0.1 h -1.39 v -0.29 h 1.23 l -0.19,0.06 a 0.49,0.49 0 0 0 -0.11,-0.36 0.44,0.44 0 0 0 -0.32,-0.13 0.53,0.53 0 0 0 -0.26,0.07 0.44,0.44 0 0 0 -0.17,0.21 0.94,0.94 0 0 0 0,0.66 0.39,0.39 0 0 0 0.18,0.2 0.45,0.45 0 0 0 0.27,0.07 0.61,0.61 0 0 0 0.28,-0.06 0.63,0.63 0 0 0 0.17,-0.19 l 0.29,0.14 a 0.72,0.72 0 0 1 -0.17,0.22 0.86,0.86 0 0 1 -0.25,0.14 1.07,1.07 0 0 1 -0.33,0.05 z"
           id="path38" />
        <path
           d="m 120.12,45.12 a 0.36,0.36 0 0 0 -0.1,-0.26 0.33,0.33 0 0 0 -0.26,-0.1 0.42,0.42 0 0 0 -0.43,0.31 l -0.31,-0.13 a 0.63,0.63 0 0 1 0.26,-0.34 0.84,0.84 0 0 1 0.5,-0.13 0.83,0.83 0 0 1 0.36,0.07 0.5,0.5 0 0 1 0.25,0.2 0.59,0.59 0 0 1 0.09,0.34 v 0.77 a 0.12,0.12 0 0 0 0.13,0.13 0.25,0.25 0 0 0 0.12,0 v 0.26 a 0.4,0.4 0 0 1 -0.2,0 0.65,0.65 0 0 1 -0.2,0 0.41,0.41 0 0 1 -0.14,-0.12 0.42,0.42 0 0 1 0,-0.2 v 0 h 0.08 a 0.38,0.38 0 0 1 -0.13,0.22 0.61,0.61 0 0 1 -0.22,0.13 0.8,0.8 0 0 1 -0.26,0.05 0.65,0.65 0 0 1 -0.29,-0.06 0.41,0.41 0 0 1 -0.21,-0.15 0.44,0.44 0 0 1 -0.07,-0.26 0.41,0.41 0 0 1 0.13,-0.32 0.68,0.68 0 0 1 0.35,-0.17 l 0.67,-0.13 v 0.26 l -0.49,0.1 a 0.51,0.51 0 0 0 -0.22,0.08 0.18,0.18 0 0 0 -0.07,0.15 0.19,0.19 0 0 0 0.08,0.15 0.29,0.29 0 0 0 0.19,0.06 h 0.17 l 0.15,-0.07 a 0.29,0.29 0 0 0 0.1,-0.12 0.48,0.48 0 0 0 0,-0.18 z"
           id="path40" />
        <path
           d="M 121.7,46.27 A 0.78,0.78 0 0 1 121.39,46.2 0.5,0.5 0 0 1 121.16,46 0.64,0.64 0 0 1 121.07,45.64 V 44.5 h 0.37 v 1 a 0.43,0.43 0 0 0 0.1,0.32 0.41,0.41 0 0 0 0.28,0.09 0.51,0.51 0 0 0 0.17,0 0.6,0.6 0 0 0 0.15,-0.09 0.55,0.55 0 0 0 0.1,-0.17 0.75,0.75 0 0 0 0,-0.23 V 44.5 h 0.37 v 1.73 h -0.32 v -0.28 a 0.56,0.56 0 0 1 -0.24,0.24 0.8,0.8 0 0 1 -0.35,0.08 z"
           id="path42" />
      </g>
      <g
         id="g60">
        <path
           d="m 113.26,52.17 a 0.94,0.94 0 0 1 -0.2,0.35 1,1 0 0 1 -0.33,0.21 1.07,1.07 0 0 1 -0.41,0.07 1,1 0 0 1 -0.57,-0.14 1,1 0 0 1 -0.37,-0.4 1.59,1.59 0 0 1 0,-1.26 1,1 0 0 1 0.37,-0.4 1,1 0 0 1 0.57,-0.14 1.25,1.25 0 0 1 0.4,0.06 0.71,0.71 0 0 1 0.31,0.19 0.76,0.76 0 0 1 0.2,0.31 l -0.35,0.15 a 0.66,0.66 0 0 0 -0.2,-0.3 0.59,0.59 0 0 0 -0.34,-0.09 0.64,0.64 0 0 0 -0.37,0.1 0.6,0.6 0 0 0 -0.25,0.29 1,1 0 0 0 -0.09,0.46 1.08,1.08 0 0 0 0.09,0.46 0.57,0.57 0 0 0 0.23,0.29 0.67,0.67 0 0 0 0.38,0.1 0.55,0.55 0 0 0 0.36,-0.11 0.58,0.58 0 0 0 0.22,-0.32 z"
           id="path46" />
        <path
           d="m 113.68,52.77 v -2.5 h 0.37 v 1 a 0.56,0.56 0 0 1 0.24,-0.24 0.66,0.66 0 0 1 0.32,-0.07 0.72,0.72 0 0 1 0.33,0.07 0.52,0.52 0 0 1 0.23,0.21 0.69,0.69 0 0 1 0.09,0.36 v 1.12 h -0.37 v -1 a 0.5,0.5 0 0 0 -0.1,-0.36 0.41,0.41 0 0 0 -0.27,-0.1 0.49,0.49 0 0 0 -0.22,0.06 0.42,0.42 0 0 0 -0.18,0.17 0.72,0.72 0 0 0 -0.07,0.32 v 0.91 z"
           id="path48" />
        <path
           d="m 116.82,51.66 a 0.36,0.36 0 0 0 -0.1,-0.27 0.36,0.36 0 0 0 -0.26,-0.09 0.42,0.42 0 0 0 -0.43,0.31 l -0.31,-0.13 a 0.6,0.6 0 0 1 0.26,-0.34 0.84,0.84 0 0 1 0.5,-0.13 0.83,0.83 0 0 1 0.36,0.07 0.5,0.5 0 0 1 0.25,0.2 0.59,0.59 0 0 1 0.09,0.34 v 0.77 a 0.12,0.12 0 0 0 0.13,0.13 0.25,0.25 0 0 0 0.12,0 v 0.26 a 0.54,0.54 0 0 1 -0.2,0 0.65,0.65 0 0 1 -0.2,0 0.41,0.41 0 0 1 -0.14,-0.12 0.43,0.43 0 0 1 -0.05,-0.21 v 0 h 0.08 a 0.38,0.38 0 0 1 -0.13,0.22 0.61,0.61 0 0 1 -0.22,0.13 0.78,0.78 0 0 1 -0.26,0 0.65,0.65 0 0 1 -0.29,0 0.41,0.41 0 0 1 -0.21,-0.15 0.47,0.47 0 0 1 -0.07,-0.27 0.4,0.4 0 0 1 0.13,-0.31 0.61,0.61 0 0 1 0.35,-0.17 l 0.67,-0.13 V 52 l -0.49,0.1 a 0.47,0.47 0 0 0 -0.21,0.07 0.19,0.19 0 0 0 -0.08,0.16 0.19,0.19 0 0 0 0.08,0.15 0.3,0.3 0 0 0 0.2,0.06 h 0.16 a 0.52,0.52 0 0 0 0.15,-0.07 0.29,0.29 0 0 0 0.1,-0.12 0.34,0.34 0 0 0 0,-0.18 z"
           id="path50" />
        <path
           d="m 118,50.75 a 0.24,0.24 0 0 1 -0.18,-0.06 0.22,0.22 0 0 1 -0.07,-0.17 0.24,0.24 0 0 1 0.07,-0.17 0.3,0.3 0 0 1 0.36,0 0.21,0.21 0 0 1 0.07,0.17 0.19,0.19 0 0 1 -0.07,0.17 0.24,0.24 0 0 1 -0.18,0.06 z m 0.19,0.29 v 1.73 h -0.37 V 51 Z"
           id="path52" />
        <path
           d="m 119.39,52.8 a 1,1 0 0 1 -0.47,-0.1 0.73,0.73 0 0 1 -0.34,-0.28 l 0.25,-0.22 a 0.69,0.69 0 0 0 0.22,0.23 0.75,0.75 0 0 0 0.35,0.08 0.62,0.62 0 0 0 0.25,0 0.18,0.18 0 0 0 0.09,-0.16 0.19,0.19 0 0 0 0,-0.12 0.39,0.39 0 0 0 -0.17,-0.07 l -0.36,-0.08 a 0.71,0.71 0 0 1 -0.39,-0.18 0.41,0.41 0 0 1 -0.12,-0.31 0.5,0.5 0 0 1 0.08,-0.26 0.63,0.63 0 0 1 0.25,-0.2 0.86,0.86 0 0 1 0.38,-0.07 1,1 0 0 1 0.44,0.09 0.64,0.64 0 0 1 0.28,0.26 l -0.25,0.21 a 0.43,0.43 0 0 0 -0.2,-0.2 0.48,0.48 0 0 0 -0.26,-0.07 0.5,0.5 0 0 0 -0.19,0 0.18,0.18 0 0 0 -0.12,0.08 0.15,0.15 0 0 0 0,0.11 0.13,0.13 0 0 0 0,0.12 0.3,0.3 0 0 0 0.18,0.08 l 0.4,0.08 A 0.67,0.67 0 0 1 120,52 a 0.39,0.39 0 0 1 0.1,0.28 0.48,0.48 0 0 1 -0.09,0.29 0.49,0.49 0 0 1 -0.25,0.19 0.86,0.86 0 0 1 -0.37,0.04 z"
           id="path54" />
        <path
           d="m 121.31,52.8 a 0.93,0.93 0 0 1 -0.45,-0.1 0.84,0.84 0 0 1 -0.31,-0.31 1.06,1.06 0 0 1 -0.11,-0.48 1,1 0 0 1 0.11,-0.48 0.83,0.83 0 0 1 0.74,-0.42 0.83,0.83 0 0 1 0.43,0.1 0.69,0.69 0 0 1 0.27,0.29 0.87,0.87 0 0 1 0.09,0.4 v 0.12 c 0,0 0,0.07 0,0.1 h -1.39 v -0.29 h 1.23 l -0.19,0.06 a 0.49,0.49 0 0 0 -0.11,-0.36 0.41,0.41 0 0 0 -0.32,-0.13 0.53,0.53 0 0 0 -0.26,0.07 0.44,0.44 0 0 0 -0.17,0.21 0.94,0.94 0 0 0 0,0.66 0.39,0.39 0 0 0 0.18,0.2 0.45,0.45 0 0 0 0.27,0.07 0.49,0.49 0 0 0 0.28,-0.07 0.49,0.49 0 0 0 0.17,-0.18 l 0.29,0.14 a 0.72,0.72 0 0 1 -0.17,0.22 0.86,0.86 0 0 1 -0.25,0.14 1,1 0 0 1 -0.33,0.04 z"
           id="path56" />
        <path
           d="m 123.21,52.8 a 1.06,1.06 0 0 1 -0.48,-0.1 0.84,0.84 0 0 1 -0.34,-0.28 l 0.26,-0.22 a 0.6,0.6 0 0 0 0.22,0.23 0.71,0.71 0 0 0 0.34,0.08 0.55,0.55 0 0 0 0.25,0 0.17,0.17 0 0 0 0.1,-0.16 0.21,0.21 0 0 0 0,-0.12 0.3,0.3 0 0 0 -0.16,-0.07 L 123,52 a 0.71,0.71 0 0 1 -0.4,-0.18 0.45,0.45 0 0 1 -0.11,-0.31 0.42,0.42 0 0 1 0.08,-0.26 0.68,0.68 0 0 1 0.24,-0.2 0.94,0.94 0 0 1 0.39,-0.07 1,1 0 0 1 0.44,0.09 0.64,0.64 0 0 1 0.28,0.26 l -0.26,0.21 a 0.37,0.37 0 0 0 -0.19,-0.2 0.48,0.48 0 0 0 -0.26,-0.07 0.5,0.5 0 0 0 -0.19,0 0.24,0.24 0 0 0 -0.13,0.08 0.21,0.21 0 0 0 0,0.11 0.17,0.17 0 0 0 0,0.12 0.37,0.37 0 0 0 0.19,0.08 l 0.39,0.08 a 0.67,0.67 0 0 1 0.36,0.17 0.43,0.43 0 0 1 0.1,0.28 0.48,0.48 0 0 1 -0.09,0.29 0.54,0.54 0 0 1 -0.25,0.19 0.89,0.89 0 0 1 -0.38,0.13 z"
           id="path58" />
      </g>
      <g
         id="g76">
        <path
           d="M 147.59,46.23 V 46 l 0.55,-0.41 a 3.06,3.06 0 0 0 0.36,-0.33 1.77,1.77 0 0 0 0.19,-0.29 0.71,0.71 0 0 0 0.06,-0.28 0.44,0.44 0 0 0 -0.11,-0.3 0.48,0.48 0 0 0 -0.32,-0.11 0.44,0.44 0 0 0 -0.34,0.14 0.62,0.62 0 0 0 -0.14,0.39 l -0.33,-0.14 a 0.9,0.9 0 0 1 0.13,-0.38 0.68,0.68 0 0 1 0.28,-0.25 1.08,1.08 0 0 1 0.42,-0.08 1.21,1.21 0 0 1 0.34,0 0.67,0.67 0 0 1 0.24,0.16 0.63,0.63 0 0 1 0.16,0.23 0.82,0.82 0 0 1 0,0.28 0.94,0.94 0 0 1 -0.11,0.42 1.5,1.5 0 0 1 -0.34,0.41 4.23,4.23 0 0 1 -0.6,0.45 h 1.09 v 0.32 z"
           id="path62" />
        <path
           d="m 150.39,43.92 a 0.89,0.89 0 0 1 0.5,0.14 1,1 0 0 1 0.3,0.41 1.68,1.68 0 0 1 0.1,0.62 1.74,1.74 0 0 1 -0.1,0.65 0.78,0.78 0 0 1 -0.31,0.39 0.85,0.85 0 0 1 -0.48,0.14 1,1 0 0 1 -0.5,-0.13 0.81,0.81 0 0 1 -0.31,-0.39 l 0.35,-0.16 a 0.46,0.46 0 0 0 0.16,0.26 0.45,0.45 0 0 0 0.3,0.1 0.54,0.54 0 0 0 0.27,-0.06 0.58,0.58 0 0 0 0.17,-0.18 1.1,1.1 0 0 0 0.09,-0.29 2.05,2.05 0 0 0 0,-0.37 v 0 0 a 0.59,0.59 0 0 1 -0.14,0.23 0.68,0.68 0 0 1 -0.22,0.12 0.77,0.77 0 0 1 -0.25,0 0.8,0.8 0 0 1 -0.39,-0.09 0.58,0.58 0 0 1 -0.27,-0.24 0.67,0.67 0 0 1 -0.1,-0.38 0.78,0.78 0 0 1 0.1,-0.41 0.81,0.81 0 0 1 0.34,-0.28 0.94,0.94 0 0 1 0.39,-0.08 z m 0,0.32 a 0.45,0.45 0 0 0 -0.34,0.12 0.49,0.49 0 0 0 -0.11,0.33 0.37,0.37 0 0 0 0.12,0.29 0.48,0.48 0 0 0 0.33,0.1 0.46,0.46 0 0 0 0.23,0 0.31,0.31 0 0 0 0.15,-0.15 0.37,0.37 0 0 0 0.06,-0.21 0.41,0.41 0 0 0 -0.06,-0.23 0.43,0.43 0 0 0 -0.15,-0.15 0.59,0.59 0 0 0 -0.22,-0.1 z"
           id="path64" />
        <path
           d="m 152.58,46.27 a 0.77,0.77 0 0 1 -0.64,-0.3 1.78,1.78 0 0 1 0,-1.75 0.84,0.84 0 0 1 1.29,0 1.78,1.78 0 0 1 0,1.75 0.77,0.77 0 0 1 -0.65,0.3 z m 0,-0.32 a 0.41,0.41 0 0 0 0.28,-0.09 0.59,0.59 0 0 0 0.17,-0.29 2,2 0 0 0 0,-1 0.56,0.56 0 0 0 -0.17,-0.28 0.37,0.37 0 0 0 -0.28,-0.1 0.36,0.36 0 0 0 -0.27,0.1 0.56,0.56 0 0 0 -0.17,0.28 2,2 0 0 0 0,1 0.59,0.59 0 0 0 0.17,0.29 0.4,0.4 0 0 0 0.27,0.14 z"
           id="path66" />
        <path
           d="m 154.07,45.76 a 0.28,0.28 0 0 1 0.16,0.05 0.34,0.34 0 0 1 0.1,0.13 0.48,0.48 0 0 1 0,0.18 0.53,0.53 0 0 1 -0.05,0.25 0.59,0.59 0 0 1 -0.14,0.22 0.83,0.83 0 0 1 -0.21,0.16 l -0.18,-0.15 a 0.56,0.56 0 0 0 0.17,-0.09 0.68,0.68 0 0 0 0.12,-0.12 0.51,0.51 0 0 0 0.07,-0.15 H 154 153.91 a 0.24,0.24 0 0 1 -0.09,-0.08 0.29,0.29 0 0 1 0,-0.14 0.28,0.28 0 0 1 0,-0.13 0.28,0.28 0 0 1 0.1,-0.09 0.2,0.2 0 0 1 0.15,-0.04 z"
           id="path68" />
        <path
           d="m 155.56,46.27 a 0.78,0.78 0 0 1 -0.65,-0.3 1.78,1.78 0 0 1 0,-1.75 0.78,0.78 0 0 1 0.65,-0.3 0.76,0.76 0 0 1 0.64,0.3 1.72,1.72 0 0 1 0,1.75 0.76,0.76 0 0 1 -0.64,0.3 z m 0,-0.32 a 0.4,0.4 0 0 0 0.27,-0.09 0.59,0.59 0 0 0 0.17,-0.29 1.95,1.95 0 0 0 0,-1 0.56,0.56 0 0 0 -0.17,-0.28 0.36,0.36 0 0 0 -0.27,-0.1 0.39,0.39 0 0 0 -0.28,0.1 0.56,0.56 0 0 0 -0.17,0.28 2.33,2.33 0 0 0 0,1 0.59,0.59 0 0 0 0.17,0.29 0.43,0.43 0 0 0 0.28,0.14 z"
           id="path70" />
        <path
           d="m 157.72,46.27 a 0.77,0.77 0 0 1 -0.64,-0.3 1.78,1.78 0 0 1 0,-1.75 0.84,0.84 0 0 1 1.29,0 1.78,1.78 0 0 1 0,1.75 0.77,0.77 0 0 1 -0.65,0.3 z m 0,-0.32 a 0.43,0.43 0 0 0 0.28,-0.09 0.59,0.59 0 0 0 0.17,-0.29 1.95,1.95 0 0 0 0,-1 0.56,0.56 0 0 0 -0.17,-0.28 0.39,0.39 0 0 0 -0.28,-0.1 0.36,0.36 0 0 0 -0.27,0.1 0.56,0.56 0 0 0 -0.17,0.28 2,2 0 0 0 0,1 0.59,0.59 0 0 0 0.17,0.29 0.4,0.4 0 0 0 0.27,0.14 z"
           id="path72" />
        <path
           d="m 160.1,45 v -0.22 h 1.48 L 161.51,45 Z m 0,0.5 v -0.23 h 1.34 l -0.07,0.23 z m 1.25,-1.56 a 1.08,1.08 0 0 1 0.38,0.06 0.79,0.79 0 0 1 0.29,0.18 0.92,0.92 0 0 1 0.17,0.29 l -0.3,0.14 a 0.57,0.57 0 0 0 -0.18,-0.28 0.53,0.53 0 0 0 -0.34,-0.1 0.58,0.58 0 0 0 -0.34,0.11 0.71,0.71 0 0 0 -0.23,0.3 1.32,1.32 0 0 0 -0.08,0.47 1.22,1.22 0 0 0 0.16,0.65 0.58,0.58 0 0 0 0.49,0.23 0.52,0.52 0 0 0 0.35,-0.11 0.54,0.54 0 0 0 0.19,-0.32 l 0.31,0.1 A 0.92,0.92 0 0 1 162,46 a 0.78,0.78 0 0 1 -0.29,0.21 1,1 0 0 1 -0.39,0.08 0.93,0.93 0 0 1 -0.88,-0.55 1.69,1.69 0 0 1 -0.11,-0.63 1.54,1.54 0 0 1 0.12,-0.63 0.91,0.91 0 0 1 0.35,-0.4 1,1 0 0 1 0.55,-0.16 z"
           id="path74" />
      </g>
      <path
         d="m 137.92,44.56 0.22,-0.22 1.36,1.35 -0.22,0.23 z m 0,1.13 1.36,-1.35 0.22,0.22 -1.36,1.36 z"
         id="path78" />
      <path
         d="m 141.94,46.23 v -1.86 a 1,1 0 0 1 -0.26,0.19 1.32,1.32 0 0 1 -0.31,0.12 l -0.07,-0.32 h 0.17 l 0.2,-0.1 0.19,-0.12 A 0.55,0.55 0 0 0 142,44 h 0.31 v 2.28 z"
         id="path80" />
      <path
         d="m 137.92,57.65 0.22,-0.23 1.36,1.36 -0.22,0.22 z m 0,1.13 1.36,-1.36 0.22,0.23 -1.36,1.35 z"
         id="path82" />
      <path
         d="m 141.94,59.32 v -1.87 a 1.06,1.06 0 0 1 -0.26,0.2 1.28,1.28 0 0 1 -0.31,0.11 l -0.07,-0.32 h 0.17 l 0.2,-0.09 0.19,-0.13 A 0.53,0.53 0 0 0 142,57 h 0.31 v 2.28 z"
         id="path84" />
      <path
         d="m 137.92,51.13 0.22,-0.22 1.36,1.36 -0.22,0.22 z m 0,1.14 1.36,-1.36 0.22,0.22 -1.36,1.36 z"
         id="path86" />
      <path
         d="m 142,52.8 v -0.57 h -1.11 V 52 v 0 0 l 0.95,-1.36 h 0.45 V 52 h 0.39 v 0.28 h -0.39 v 0.57 z m -0.76,-0.85 H 142 v -0.81 c 0,0 0,-0.11 0,-0.17 a 1,1 0 0 1 0,-0.17 v 0 l -0.1,0.18 -0.11,0.17 -0.54,0.77 v 0 z"
         id="path88" />
      <g
         id="g104">
        <path
           d="M 147.55,52.77 V 52.5 l 0.55,-0.41 a 2.4,2.4 0 0 0 0.36,-0.34 1.07,1.07 0 0 0 0.19,-0.28 0.71,0.71 0 0 0 0.06,-0.28 0.44,0.44 0 0 0 -0.11,-0.3 0.46,0.46 0 0 0 -0.32,-0.11 0.44,0.44 0 0 0 -0.34,0.14 0.68,0.68 0 0 0 -0.14,0.39 l -0.32,-0.15 a 0.85,0.85 0 0 1 0.12,-0.37 0.71,0.71 0 0 1 0.29,-0.25 1,1 0 0 1 0.41,-0.08 1.16,1.16 0 0 1 0.34,0 0.6,0.6 0 0 1 0.24,0.16 0.63,0.63 0 0 1 0.16,0.23 0.81,0.81 0 0 1 0.05,0.27 0.78,0.78 0 0 1 -0.11,0.42 1.52,1.52 0 0 1 -0.33,0.42 5.1,5.1 0 0 1 -0.61,0.45 h 1.09 v 0.32 z"
           id="path90" />
        <path
           d="m 150.42,52.8 a 0.8,0.8 0 0 1 -0.65,-0.29 1.46,1.46 0 0 1 -0.23,-0.88 1.41,1.41 0 0 1 0.23,-0.87 0.78,0.78 0 0 1 0.65,-0.3 0.76,0.76 0 0 1 0.64,0.3 1.35,1.35 0 0 1 0.24,0.87 1.4,1.4 0 0 1 -0.24,0.88 0.78,0.78 0 0 1 -0.64,0.29 z m 0,-0.31 a 0.4,0.4 0 0 0 0.27,-0.09 0.52,0.52 0 0 0 0.17,-0.29 1.95,1.95 0 0 0 0,-1 0.46,0.46 0 0 0 -0.17,-0.28 0.36,0.36 0 0 0 -0.27,-0.1 0.39,0.39 0 0 0 -0.28,0.1 0.52,0.52 0 0 0 -0.17,0.28 2.33,2.33 0 0 0 0,1 0.59,0.59 0 0 0 0.17,0.29 0.43,0.43 0 0 0 0.28,0.09 z"
           id="path92" />
        <path
           d="m 152.58,52.8 a 0.79,0.79 0 0 1 -0.64,-0.29 1.46,1.46 0 0 1 -0.23,-0.88 1.41,1.41 0 0 1 0.23,-0.87 0.84,0.84 0 0 1 1.29,0 1.35,1.35 0 0 1 0.23,0.87 1.4,1.4 0 0 1 -0.23,0.88 0.79,0.79 0 0 1 -0.65,0.29 z m 0,-0.31 a 0.41,0.41 0 0 0 0.28,-0.09 0.59,0.59 0 0 0 0.17,-0.29 1.95,1.95 0 0 0 0,-1 0.52,0.52 0 0 0 -0.17,-0.28 0.37,0.37 0 0 0 -0.28,-0.1 0.36,0.36 0 0 0 -0.27,0.1 0.52,0.52 0 0 0 -0.17,0.28 2,2 0 0 0 0,1 0.59,0.59 0 0 0 0.17,0.29 0.4,0.4 0 0 0 0.27,0.09 z"
           id="path94" />
        <path
           d="m 154.07,52.3 a 0.28,0.28 0 0 1 0.16,0.05 0.34,0.34 0 0 1 0.1,0.13 0.48,0.48 0 0 1 0,0.18 0.53,0.53 0 0 1 -0.05,0.25 0.74,0.74 0 0 1 -0.14,0.22 0.73,0.73 0 0 1 -0.22,0.16 l -0.17,-0.15 a 0.56,0.56 0 0 0 0.17,-0.09 0.49,0.49 0 0 0 0.12,-0.13 0.37,0.37 0 0 0 0.07,-0.14 H 154 153.9 a 0.18,0.18 0 0 1 -0.08,-0.07 0.29,0.29 0 0 1 0,-0.14 0.28,0.28 0 0 1 0,-0.13 0.28,0.28 0 0 1 0.1,-0.09 0.2,0.2 0 0 1 0.15,-0.05 z"
           id="path96" />
        <path
           d="m 155.56,52.8 a 0.8,0.8 0 0 1 -0.65,-0.29 1.46,1.46 0 0 1 -0.23,-0.88 1.41,1.41 0 0 1 0.23,-0.87 0.78,0.78 0 0 1 0.65,-0.3 0.76,0.76 0 0 1 0.64,0.3 1.35,1.35 0 0 1 0.24,0.87 1.4,1.4 0 0 1 -0.24,0.88 0.78,0.78 0 0 1 -0.64,0.29 z m 0,-0.31 a 0.4,0.4 0 0 0 0.27,-0.09 0.59,0.59 0 0 0 0.17,-0.29 1.95,1.95 0 0 0 0,-1 0.52,0.52 0 0 0 -0.17,-0.28 0.36,0.36 0 0 0 -0.27,-0.1 0.39,0.39 0 0 0 -0.28,0.1 0.52,0.52 0 0 0 -0.17,0.28 2.33,2.33 0 0 0 0,1 0.59,0.59 0 0 0 0.17,0.29 0.43,0.43 0 0 0 0.28,0.09 z"
           id="path98" />
        <path
           d="m 157.72,52.8 a 0.78,0.78 0 0 1 -0.64,-0.29 1.4,1.4 0 0 1 -0.23,-0.88 1.35,1.35 0 0 1 0.23,-0.87 0.76,0.76 0 0 1 0.64,-0.3 0.78,0.78 0 0 1 0.65,0.3 1.35,1.35 0 0 1 0.23,0.87 1.4,1.4 0 0 1 -0.23,0.88 0.8,0.8 0 0 1 -0.65,0.29 z m 0,-0.31 a 0.43,0.43 0 0 0 0.28,-0.09 0.59,0.59 0 0 0 0.17,-0.29 1.95,1.95 0 0 0 0,-1 0.52,0.52 0 0 0 -0.17,-0.28 0.39,0.39 0 0 0 -0.28,-0.1 0.36,0.36 0 0 0 -0.27,0.1 0.46,0.46 0 0 0 -0.17,0.28 2,2 0 0 0 0,1 0.52,0.52 0 0 0 0.17,0.29 0.4,0.4 0 0 0 0.27,0.09 z"
           id="path100" />
        <path
           d="M 160.1,51.52 V 51.3 h 1.48 l -0.07,0.22 z m 0,0.5 v -0.23 h 1.34 l -0.07,0.23 z m 1.25,-1.56 a 1.08,1.08 0 0 1 0.38,0.06 0.68,0.68 0 0 1 0.28,0.18 0.79,0.79 0 0 1 0.18,0.29 l -0.3,0.14 a 0.52,0.52 0 0 0 -0.19,-0.28 0.48,0.48 0 0 0 -0.33,-0.1 0.55,0.55 0 0 0 -0.34,0.11 0.64,0.64 0 0 0 -0.23,0.3 1.32,1.32 0 0 0 -0.08,0.47 1.22,1.22 0 0 0 0.16,0.65 0.63,0.63 0 0 0 0.84,0.12 0.54,0.54 0 0 0 0.19,-0.32 l 0.31,0.1 a 0.92,0.92 0 0 1 -0.18,0.34 0.78,0.78 0 0 1 -0.29,0.21 1,1 0 0 1 -0.39,0.07 1,1 0 0 1 -0.54,-0.14 1,1 0 0 1 -0.34,-0.4 1.73,1.73 0 0 1 -0.11,-0.63 1.54,1.54 0 0 1 0.12,-0.63 0.91,0.91 0 0 1 0.35,-0.4 0.87,0.87 0 0 1 0.51,-0.14 z"
           id="path102" />
      </g>
      <g
         id="g116">
        <path
           d="M 111.74,59 H 113 v 0.32 h -1.63 V 57 h 0.37 z"
           id="path106" />
        <path
           d="m 114.39,58.21 a 0.33,0.33 0 0 0 -0.1,-0.27 0.36,0.36 0 0 0 -0.26,-0.09 0.44,0.44 0 0 0 -0.26,0.07 0.41,0.41 0 0 0 -0.17,0.23 l -0.31,-0.13 a 0.67,0.67 0 0 1 0.26,-0.34 0.93,0.93 0 0 1 0.5,-0.12 1,1 0 0 1 0.36,0.06 0.56,0.56 0 0 1 0.25,0.2 0.63,0.63 0 0 1 0.09,0.35 v 0.77 a 0.12,0.12 0 0 0 0.13,0.13 H 115 v 0.26 a 0.56,0.56 0 0 1 -0.2,0 0.45,0.45 0 0 1 -0.2,0 0.27,0.27 0 0 1 -0.14,-0.12 0.39,0.39 0 0 1 0,-0.2 v 0 h 0.08 a 0.41,0.41 0 0 1 -0.13,0.23 0.8,0.8 0 0 1 -0.22,0.13 0.78,0.78 0 0 1 -0.26,0 0.84,0.84 0 0 1 -0.29,-0.05 0.49,0.49 0 0 1 -0.21,-0.16 0.44,0.44 0 0 1 -0.07,-0.26 0.42,0.42 0 0 1 0.13,-0.32 0.68,0.68 0 0 1 0.35,-0.17 l 0.67,-0.13 v 0.26 l -0.49,0.1 a 0.61,0.61 0 0 0 -0.21,0.08 0.19,0.19 0 0 0 -0.08,0.15 0.19,0.19 0 0 0 0.08,0.16 0.37,0.37 0 0 0 0.2,0.05 0.44,0.44 0 0 0 0.16,0 0.34,0.34 0 0 0 0.15,-0.06 0.41,0.41 0 0 0 0.1,-0.13 0.29,0.29 0 0 0 0,-0.17 z"
           id="path108" />
        <path
           d="m 115.36,59.32 v -1.73 h 0.33 v 0.29 a 0.64,0.64 0 0 1 0.24,-0.25 0.71,0.71 0 0 1 0.32,-0.07 0.69,0.69 0 0 1 0.35,0.08 0.56,0.56 0 0 1 0.23,0.25 0.7,0.7 0 0 1 0.15,-0.19 0.72,0.72 0 0 1 0.45,-0.14 0.81,0.81 0 0 1 0.31,0.06 0.58,0.58 0 0 1 0.23,0.21 0.7,0.7 0 0 1 0.09,0.37 v 1.12 h -0.37 v -1.06 a 0.4,0.4 0 0 0 -0.1,-0.31 0.35,0.35 0 0 0 -0.25,-0.09 0.4,0.4 0 0 0 -0.22,0.06 0.4,0.4 0 0 0 -0.17,0.17 0.62,0.62 0 0 0 -0.06,0.29 v 0.94 h -0.37 v -1.06 a 0.4,0.4 0 0 0 -0.1,-0.31 0.37,0.37 0 0 0 -0.25,-0.09 0.54,0.54 0 0 0 -0.21,0 0.42,0.42 0 0 0 -0.17,0.18 0.55,0.55 0 0 0 -0.07,0.31 v 0.92 z"
           id="path110" />
        <path
           d="M 118.63,60 V 57.59 H 119 v 0.48 -0.06 a 0.65,0.65 0 0 1 0.13,-0.23 0.58,0.58 0 0 1 0.21,-0.17 0.68,0.68 0 0 1 0.29,0 0.7,0.7 0 0 1 0.38,0.1 0.68,0.68 0 0 1 0.27,0.31 1.2,1.2 0 0 1 0,1 0.75,0.75 0 0 1 -0.27,0.31 0.77,0.77 0 0 1 -0.39,0.11 0.62,0.62 0 0 1 -0.38,-0.12 0.58,0.58 0 0 1 -0.22,-0.29 V 58.97 60 Z m 0.85,-1 a 0.42,0.42 0 0 0 0.35,-0.16 0.72,0.72 0 0 0 0.12,-0.44 0.74,0.74 0 0 0 -0.12,-0.44 0.43,0.43 0 0 0 -0.34,-0.16 0.45,0.45 0 0 0 -0.26,0.08 0.48,0.48 0 0 0 -0.17,0.2 0.88,0.88 0 0 0 0,0.64 0.44,0.44 0 0 0 0.17,0.21 0.49,0.49 0 0 0 0.25,0.12 z"
           id="path112" />
        <path
           d="m 121.56,59.35 a 1,1 0 0 1 -0.46,-0.11 0.77,0.77 0 0 1 -0.31,-0.31 1,1 0 0 1 -0.1,-0.48 1.06,1.06 0 0 1 0.1,-0.48 0.84,0.84 0 0 1 0.31,-0.31 0.89,0.89 0 0 1 0.44,-0.1 0.79,0.79 0 0 1 0.42,0.1 0.66,0.66 0 0 1 0.27,0.28 0.92,0.92 0 0 1 0.1,0.41 c 0,0 0,0.08 0,0.12 a 0.25,0.25 0 0 1 0,0.09 h -1.39 v -0.28 h 1.23 l -0.18,0.06 a 0.53,0.53 0 0 0 -0.12,-0.37 0.5,0.5 0 0 0 -0.58,0 0.42,0.42 0 0 0 -0.17,0.2 0.83,0.83 0 0 0 -0.06,0.34 0.79,0.79 0 0 0 0.06,0.32 0.53,0.53 0 0 0 0.18,0.21 0.6,0.6 0 0 0 0.27,0.07 0.58,0.58 0 0 0 0.28,-0.07 0.42,0.42 0 0 0 0.17,-0.18 l 0.29,0.14 a 0.68,0.68 0 0 1 -0.17,0.21 0.68,0.68 0 0 1 -0.25,0.14 1,1 0 0 1 -0.33,0 z"
           id="path114" />
      </g>
      <g
         id="g130">
        <path
           d="m 149.62,57 h 1.74 v 0.3 a 3.05,3.05 0 0 0 -0.46,0.61 2.39,2.39 0 0 0 -0.26,0.65 3.32,3.32 0 0 0 -0.07,0.72 h -0.38 a 2.71,2.71 0 0 1 0.1,-0.75 2.6,2.6 0 0 1 0.29,-0.69 2.79,2.79 0 0 1 0.49,-0.61 l 0.07,0.09 h -1.52 z"
           id="path118" />
        <path
           d="m 152.5,57 a 0.79,0.79 0 0 1 0.49,0.15 0.82,0.82 0 0 1 0.31,0.41 1.85,1.85 0 0 1 0.1,0.61 1.78,1.78 0 0 1 -0.11,0.66 0.81,0.81 0 0 1 -0.31,0.39 0.82,0.82 0 0 1 -0.48,0.13 0.91,0.91 0 0 1 -0.5,-0.13 0.79,0.79 0 0 1 -0.31,-0.38 l 0.35,-0.16 a 0.63,0.63 0 0 0 0.16,0.26 0.5,0.5 0 0 0 0.31,0.09 0.53,0.53 0 0 0 0.26,-0.06 0.45,0.45 0 0 0 0.18,-0.18 1,1 0 0 0 0.09,-0.28 c 0,-0.11 0,-0.24 0,-0.37 v 0 0 a 0.46,0.46 0 0 1 -0.14,0.22 0.61,0.61 0 0 1 -0.22,0.13 1,1 0 0 1 -0.25,0 0.83,0.83 0 0 1 -0.39,-0.09 0.65,0.65 0 0 1 -0.36,-0.62 0.82,0.82 0 0 1 0.1,-0.42 0.62,0.62 0 0 1 0.27,-0.26 0.89,0.89 0 0 1 0.45,-0.1 z m 0,0.33 a 0.49,0.49 0 0 0 -0.33,0.11 0.45,0.45 0 0 0 -0.12,0.33 0.36,0.36 0 0 0 0.12,0.29 0.55,0.55 0 0 0 0.56,0.06 0.46,0.46 0 0 0 0.16,-0.15 0.4,0.4 0 0 0 0.06,-0.22 0.38,0.38 0 0 0 -0.06,-0.22 0.33,0.33 0 0 0 -0.16,-0.15 0.41,0.41 0 0 0 -0.23,-0.05 z"
           id="path120" />
        <path
           d="m 154,58.85 a 0.22,0.22 0 0 1 0.16,0 0.4,0.4 0 0 1 0.1,0.12 0.58,0.58 0 0 1 0,0.19 0.64,0.64 0 0 1 -0.05,0.24 0.64,0.64 0 0 1 -0.14,0.22 0.6,0.6 0 0 1 -0.22,0.16 l -0.17,-0.15 0.17,-0.08 a 0.74,0.74 0 0 0 0.12,-0.13 0.46,0.46 0 0 0 0.07,-0.14 v 0 0 H 154 153.9 a 0.2,0.2 0 0 1 -0.08,-0.08 0.25,0.25 0 0 1 0,-0.13 0.32,0.32 0 0 1 0,-0.14 0.28,0.28 0 0 1 0.1,-0.09 0.28,0.28 0 0 1 0.08,0.01 z"
           id="path122" />
        <path
           d="m 155.53,57 a 0.82,0.82 0 0 1 0.5,0.15 0.86,0.86 0 0 1 0.3,0.41 1.63,1.63 0 0 1 0.1,0.61 1.8,1.8 0 0 1 -0.1,0.66 1,1 0 0 1 -0.31,0.39 0.86,0.86 0 0 1 -0.48,0.13 0.89,0.89 0 0 1 -0.5,-0.13 0.74,0.74 0 0 1 -0.31,-0.38 l 0.35,-0.16 a 0.54,0.54 0 0 0 0.16,0.26 0.45,0.45 0 0 0 0.3,0.09 0.54,0.54 0 0 0 0.27,-0.06 0.42,0.42 0 0 0 0.17,-0.18 1,1 0 0 0 0.09,-0.28 2.13,2.13 0 0 0 0,-0.37 v 0 0 a 0.45,0.45 0 0 1 -0.13,0.22 0.65,0.65 0 0 1 -0.23,0.13 1,1 0 0 1 -0.24,0 0.87,0.87 0 0 1 -0.4,-0.09 0.63,0.63 0 0 1 -0.26,-0.25 0.64,0.64 0 0 1 -0.1,-0.37 0.82,0.82 0 0 1 0.1,-0.42 0.64,0.64 0 0 1 0.28,-0.26 0.83,0.83 0 0 1 0.44,-0.1 z m 0,0.33 a 0.5,0.5 0 0 0 -0.34,0.11 0.44,0.44 0 0 0 -0.11,0.33 0.36,0.36 0 0 0 0.12,0.29 0.49,0.49 0 0 0 0.33,0.11 0.59,0.59 0 0 0 0.23,-0.05 0.43,0.43 0 0 0 0.15,-0.15 0.4,0.4 0 0 0 0.06,-0.22 0.38,0.38 0 0 0 -0.06,-0.22 0.31,0.31 0 0 0 -0.15,-0.15 0.46,0.46 0 0 0 -0.22,-0.05 z"
           id="path124" />
        <path
           d="m 157.72,59.35 a 0.76,0.76 0 0 1 -0.64,-0.3 1.78,1.78 0 0 1 0,-1.75 0.76,0.76 0 0 1 0.64,-0.3 0.78,0.78 0 0 1 0.65,0.3 1.78,1.78 0 0 1 0,1.75 0.78,0.78 0 0 1 -0.65,0.3 z m 0,-0.31 a 0.43,0.43 0 0 0 0.28,-0.1 0.55,0.55 0 0 0 0.17,-0.29 1.53,1.53 0 0 0 0.06,-0.47 1.61,1.61 0 0 0 -0.06,-0.48 0.59,0.59 0 0 0 -0.17,-0.29 0.43,0.43 0 0 0 -0.28,-0.09 0.4,0.4 0 0 0 -0.27,0.09 0.52,0.52 0 0 0 -0.17,0.29 1.61,1.61 0 0 0 -0.06,0.48 1.53,1.53 0 0 0 0.06,0.47 0.49,0.49 0 0 0 0.17,0.29 0.41,0.41 0 0 0 0.27,0.06 z"
           id="path126" />
        <path
           d="m 160.1,58.07 v -0.23 h 1.48 l -0.07,0.23 z m 0,0.49 v -0.22 h 1.34 l -0.07,0.22 z M 161.35,57 a 0.89,0.89 0 0 1 0.38,0.07 0.68,0.68 0 0 1 0.28,0.18 0.71,0.71 0 0 1 0.18,0.29 l -0.3,0.14 a 0.55,0.55 0 0 0 -0.19,-0.29 0.54,0.54 0 0 0 -0.33,-0.09 0.55,0.55 0 0 0 -0.34,0.1 0.64,0.64 0 0 0 -0.23,0.3 1.34,1.34 0 0 0 -0.08,0.48 1.16,1.16 0 0 0 0.16,0.64 0.56,0.56 0 0 0 0.49,0.24 0.58,0.58 0 0 0 0.35,-0.11 0.6,0.6 0 0 0 0.19,-0.33 l 0.31,0.11 a 1,1 0 0 1 -0.18,0.34 0.78,0.78 0 0 1 -0.29,0.21 1,1 0 0 1 -0.39,0.07 1,1 0 0 1 -0.54,-0.14 1,1 0 0 1 -0.34,-0.41 1.64,1.64 0 0 1 -0.11,-0.62 1.48,1.48 0 0 1 0.12,-0.63 0.94,0.94 0 0 1 0.35,-0.41 1,1 0 0 1 0.51,-0.14 z"
           id="path128" />
      </g>
      <rect
         x="111.37"
         y="65.839996"
         width="41.41"
         height="3.1300001"
         style="fill:#f5f4ff"
         id="rect132" />
      <rect
         x="111.37"
         y="70.809998"
         width="14.53"
         height="3.1300001"
         style="fill:#f5f4ff"
         id="rect134" />
      <rect
         x="120.35"
         y="29.110001"
         width="32.860001"
         height="3.1300001"
         style="fill:#f5f4ff"
         id="rect136" />
      <g
         id="g152">
        <path
           d="m 142.55,82.56 a 1.21,1.21 0 0 1 -0.71,-0.19 1.28,1.28 0 0 1 -0.43,-0.53 l 0.49,-0.26 a 0.83,0.83 0 0 0 0.22,0.39 0.58,0.58 0 0 0 0.44,0.14 0.75,0.75 0 0 0 0.35,-0.07 0.52,0.52 0 0 0 0.22,-0.22 0.67,0.67 0 0 0 0.08,-0.33 0.82,0.82 0 0 0 -0.07,-0.34 0.53,0.53 0 0 0 -0.21,-0.21 0.75,0.75 0 0 0 -0.35,-0.07 1.09,1.09 0 0 0 -0.26,0 0.85,0.85 0 0 0 -0.22,0.09 0.64,0.64 0 0 0 -0.17,0.16 l -0.43,-0.08 0.2,-1.78 h 1.87 v 0.45 h -1.46 l -0.12,0.91 v 0 0 a 0.81,0.81 0 0 1 0.29,-0.19 1.11,1.11 0 0 1 0.43,-0.07 1,1 0 0 1 0.53,0.13 0.87,0.87 0 0 1 0.35,0.36 1,1 0 0 1 0.13,0.53 1.16,1.16 0 0 1 -0.09,0.47 0.78,0.78 0 0 1 -0.25,0.34 1,1 0 0 1 -0.37,0.22 1.64,1.64 0 0 1 -0.46,0.15 z"
           id="path138" />
        <path
           d="m 145.6,79.24 a 1.25,1.25 0 0 1 0.45,0.07 0.91,0.91 0 0 1 0.35,0.22 1.3,1.3 0 0 1 0.25,0.4 l -0.46,0.22 a 0.65,0.65 0 0 0 -0.22,-0.33 0.58,0.58 0 0 0 -0.41,-0.13 0.57,0.57 0 0 0 -0.34,0.1 0.76,0.76 0 0 0 -0.24,0.26 1.38,1.38 0 0 0 -0.16,0.39 1.94,1.94 0 0 0 0,0.49 V 81 81 a 0.58,0.58 0 0 1 0.19,-0.31 1,1 0 0 1 0.31,-0.18 1.12,1.12 0 0 1 0.35,-0.06 1.25,1.25 0 0 1 0.56,0.12 0.86,0.86 0 0 1 0.37,0.36 1,1 0 0 1 0.14,0.54 1.11,1.11 0 0 1 -0.14,0.56 1,1 0 0 1 -0.4,0.37 1.21,1.21 0 0 1 -0.6,0.13 1.18,1.18 0 0 1 -0.7,-0.21 1.35,1.35 0 0 1 -0.44,-0.57 2.33,2.33 0 0 1 -0.15,-0.87 2.07,2.07 0 0 1 0.18,-0.92 1.22,1.22 0 0 1 1.14,-0.75 z m 0,1.67 a 0.73,0.73 0 0 0 -0.33,0.08 0.63,0.63 0 0 0 -0.22,0.21 0.58,0.58 0 0 0 -0.08,0.3 0.54,0.54 0 0 0 0.09,0.31 0.58,0.58 0 0 0 0.22,0.22 0.69,0.69 0 0 0 0.32,0.08 0.64,0.64 0 0 0 0.4,-0.11 0.61,0.61 0 0 0 0.16,-0.45 0.62,0.62 0 0 0 -0.07,-0.31 0.53,0.53 0 0 0 -0.21,-0.21 0.91,0.91 0 0 0 -0.32,-0.12 z"
           id="path140" />
        <path
           d="m 148.42,79.24 a 1.23,1.23 0 0 1 0.7,0.2 1.29,1.29 0 0 1 0.43,0.58 2.56,2.56 0 0 1 0.14,0.87 2.48,2.48 0 0 1 -0.15,0.93 1.16,1.16 0 0 1 -0.43,0.55 1.19,1.19 0 0 1 -0.69,0.19 1.3,1.3 0 0 1 -0.7,-0.18 1.08,1.08 0 0 1 -0.44,-0.54 l 0.49,-0.23 A 0.75,0.75 0 0 0 148,82 a 0.65,0.65 0 0 0 0.43,0.14 0.74,0.74 0 0 0 0.38,-0.09 0.64,0.64 0 0 0 0.24,-0.25 1.45,1.45 0 0 0 0.13,-0.4 2.86,2.86 0 0 0 0,-0.53 v 0 0 a 0.65,0.65 0 0 1 -0.19,0.31 0.85,0.85 0 0 1 -0.32,0.18 1.07,1.07 0 0 1 -0.35,0.06 1.09,1.09 0 0 1 -0.55,-0.13 0.86,0.86 0 0 1 -0.38,-0.35 1,1 0 0 1 -0.14,-0.53 1.18,1.18 0 0 1 0.14,-0.58 1,1 0 0 1 0.39,-0.38 1.35,1.35 0 0 1 0.64,-0.21 z m 0,0.46 a 0.56,0.56 0 0 0 -0.63,0.63 0.53,0.53 0 0 0 0.17,0.41 0.69,0.69 0 0 0 0.46,0.15 0.7,0.7 0 0 0 0.33,-0.08 0.61,0.61 0 0 0 0.22,-0.2 0.53,0.53 0 0 0 0.08,-0.31 A 0.55,0.55 0 0 0 149,80 0.56,0.56 0 0 0 148.78,79.79 0.7,0.7 0 0 0 148.42,79.7 Z"
           id="path142" />
        <path
           d="m 150.59,81.85 a 0.33,0.33 0 0 1 0.23,0.07 0.37,0.37 0 0 1 0.14,0.18 0.67,0.67 0 0 1 0,0.26 0.84,0.84 0 0 1 -0.07,0.35 1,1 0 0 1 -0.2,0.31 1,1 0 0 1 -0.31,0.22 l -0.24,-0.21 a 0.58,0.58 0 0 0 0.23,-0.13 1,1 0 0 0 0.18,-0.17 0.93,0.93 0 0 0 0.1,-0.2 v 0 h -0.06 -0.09 -0.14 a 0.32,0.32 0 0 1 -0.12,-0.11 0.39,0.39 0 0 1 0,-0.38 0.35,0.35 0 0 1 0.14,-0.13 0.37,0.37 0 0 1 0.21,-0.06 z"
           id="path144" />
        <path
           d="m 152.71,79.24 a 1.23,1.23 0 0 1 0.7,0.2 1.29,1.29 0 0 1 0.43,0.58 2.56,2.56 0 0 1 0.14,0.87 2.48,2.48 0 0 1 -0.15,0.93 1.16,1.16 0 0 1 -0.43,0.55 1.19,1.19 0 0 1 -0.69,0.19 1.33,1.33 0 0 1 -0.7,-0.18 1.08,1.08 0 0 1 -0.44,-0.54 l 0.49,-0.23 a 0.75,0.75 0 0 0 0.23,0.36 0.65,0.65 0 0 0 0.43,0.14 0.74,0.74 0 0 0 0.38,-0.09 0.64,0.64 0 0 0 0.24,-0.25 1.45,1.45 0 0 0 0.13,-0.4 2.86,2.86 0 0 0 0,-0.53 v 0 0 a 0.65,0.65 0 0 1 -0.19,0.31 0.85,0.85 0 0 1 -0.32,0.18 1.07,1.07 0 0 1 -0.35,0.06 1.09,1.09 0 0 1 -0.55,-0.13 0.92,0.92 0 0 1 -0.38,-0.35 1,1 0 0 1 -0.14,-0.53 1.18,1.18 0 0 1 0.14,-0.58 1,1 0 0 1 0.39,-0.38 1.35,1.35 0 0 1 0.64,-0.18 z m 0,0.46 a 0.56,0.56 0 0 0 -0.63,0.63 0.53,0.53 0 0 0 0.17,0.41 0.69,0.69 0 0 0 0.46,0.15 0.67,0.67 0 0 0 0.33,-0.08 0.61,0.61 0 0 0 0.22,-0.2 0.53,0.53 0 0 0 0.08,-0.31 0.55,0.55 0 0 0 -0.08,-0.32 0.56,0.56 0 0 0 -0.22,-0.21 0.67,0.67 0 0 0 -0.33,-0.07 z"
           id="path146" />
        <path
           d="m 155.81,82.56 a 1.09,1.09 0 0 1 -0.91,-0.42 2.49,2.49 0 0 1 0,-2.48 1.2,1.2 0 0 1 1.82,0 2.49,2.49 0 0 1 0,2.48 1.09,1.09 0 0 1 -0.91,0.42 z m 0,-0.45 a 0.59,0.59 0 0 0 0.39,-0.13 0.75,0.75 0 0 0 0.24,-0.41 2.51,2.51 0 0 0 0.08,-0.67 2.59,2.59 0 0 0 -0.08,-0.68 0.76,0.76 0 0 0 -0.24,-0.4 0.6,0.6 0 0 0 -0.39,-0.14 0.61,0.61 0 0 0 -0.4,0.14 0.82,0.82 0 0 0 -0.23,0.4 2.22,2.22 0 0 0 -0.08,0.68 2.16,2.16 0 0 0 0.08,0.67 0.81,0.81 0 0 0 0.23,0.41 0.6,0.6 0 0 0 0.4,0.13 z"
           id="path148" />
        <path
           d="m 159.17,80.74 v -0.31 h 2.09 l -0.1,0.31 z m 0,0.71 v -0.32 h 1.89 l -0.09,0.32 z m 1.77,-2.21 a 1.53,1.53 0 0 1 0.54,0.09 1,1 0 0 1 0.65,0.67 l -0.44,0.2 a 0.69,0.69 0 0 0 -0.25,-0.41 0.79,0.79 0 0 0 -0.47,-0.14 0.81,0.81 0 0 0 -0.49,0.15 1,1 0 0 0 -0.32,0.43 1.92,1.92 0 0 0 -0.11,0.67 1.51,1.51 0 0 0 0.23,0.91 0.78,0.78 0 0 0 0.69,0.33 0.79,0.79 0 0 0 0.49,-0.15 0.85,0.85 0 0 0 0.27,-0.46 l 0.44,0.15 a 1.38,1.38 0 0 1 -0.25,0.48 1.15,1.15 0 0 1 -0.42,0.3 1.58,1.58 0 0 1 -0.55,0.1 1.43,1.43 0 0 1 -0.76,-0.2 1.28,1.28 0 0 1 -0.48,-0.57 2.21,2.21 0 0 1 -0.16,-0.89 2,2 0 0 1 0.17,-0.89 1.31,1.31 0 0 1 0.49,-0.57 1.35,1.35 0 0 1 0.73,-0.2 z"
           id="path150" />
      </g>
      <line
         x1="134.46001"
         y1="75.830002"
         x2="162.35001"
         y2="75.830002"
         style="fill:none;stroke:#000000;stroke-width:0.275183px;stroke-miterlimit:10;stroke-dasharray:1.10073"
         id="line154" />
      <rect
         x="122.41"
         y="88.349998"
         width="26.16"
         height="3.1300001"
         style="fill:#f5f4ff"
         id="rect156" />
      <rect
         x="127.17"
         y="93.629997"
         width="16.639999"
         height="3.1300001"
         style="fill:#f5f4ff"
         id="rect158" />
      <rect
         x="108.81"
         y="98.910004"
         width="53.360001"
         height="3.1300001"
         style="fill:#f5f4ff"
         id="rect160" />
    </g>
  </g>
</svg>
