<?xml version="1.0" encoding="utf-8"?>
<svg viewBox="0 0 63.909998 98.069997" xmlns="http://www.w3.org/2000/svg">
  <g id="g342" transform="matrix(1, 0, 0, 1, -104.82, -11.8)">
    <g id="g162">
      <rect x="105.064" y="11.8" width="63.91" height="98.07" style="fill:#ffffff" id="rect2"/>
      <g id="g30"/>
      <g id="g44" transform="matrix(1, 0, -0.001997, 1, -0.652035, -0.610647)" style="">
        <text style="fill: rgb(51, 51, 51); font-family: Arial, sans-serif; font-size: 3.4px; font-weight: 700; white-space: pre;" x="111.903" y="46.729">Etude Dossier</text>
        <text style="fill: rgb(51, 51, 51); font-family: Arial, sans-serif; font-size: 3.4px; font-weight: 700; white-space: pre;" x="118.499" y="36.47"> </text>
      </g>
      <path d="m 137.92,44.56 0.22,-0.22 1.36,1.35 -0.22,0.23 z m 0,1.13 1.36,-1.35 0.22,0.22 -1.36,1.36 z" id="path78"/>
      <path d="m 141.94,46.23 v -1.86 a 1,1 0 0 1 -0.26,0.19 1.32,1.32 0 0 1 -0.31,0.12 l -0.07,-0.32 h 0.17 l 0.2,-0.1 0.19,-0.12 A 0.55,0.55 0 0 0 142,44 h 0.31 v 2.28 z" id="path80"/>
      <path d="m 137.92,57.65 0.22,-0.23 1.36,1.36 -0.22,0.22 z m 0,1.13 1.36,-1.36 0.22,0.23 -1.36,1.35 z" id="path82"/>
      <path d="m 137.92,51.13 0.22,-0.22 1.36,1.36 -0.22,0.22 z m 0,1.14 1.36,-1.36 0.22,0.22 -1.36,1.36 z" id="path86"/>
      <g id="g104" transform="matrix(1, 0, 0, 1, 1.954073, -6.717123)">
        <path d="M 147.55,52.77 V 52.5 l 0.55,-0.41 a 2.4,2.4 0 0 0 0.36,-0.34 1.07,1.07 0 0 0 0.19,-0.28 0.71,0.71 0 0 0 0.06,-0.28 0.44,0.44 0 0 0 -0.11,-0.3 0.46,0.46 0 0 0 -0.32,-0.11 0.44,0.44 0 0 0 -0.34,0.14 0.68,0.68 0 0 0 -0.14,0.39 l -0.32,-0.15 a 0.85,0.85 0 0 1 0.12,-0.37 0.71,0.71 0 0 1 0.29,-0.25 1,1 0 0 1 0.41,-0.08 1.16,1.16 0 0 1 0.34,0 0.6,0.6 0 0 1 0.24,0.16 0.63,0.63 0 0 1 0.16,0.23 0.81,0.81 0 0 1 0.05,0.27 0.78,0.78 0 0 1 -0.11,0.42 1.52,1.52 0 0 1 -0.33,0.42 5.1,5.1 0 0 1 -0.61,0.45 h 1.09 v 0.32 z" id="path90"/>
        <path d="m 150.42,52.8 a 0.8,0.8 0 0 1 -0.65,-0.29 1.46,1.46 0 0 1 -0.23,-0.88 1.41,1.41 0 0 1 0.23,-0.87 0.78,0.78 0 0 1 0.65,-0.3 0.76,0.76 0 0 1 0.64,0.3 1.35,1.35 0 0 1 0.24,0.87 1.4,1.4 0 0 1 -0.24,0.88 0.78,0.78 0 0 1 -0.64,0.29 z m 0,-0.31 a 0.4,0.4 0 0 0 0.27,-0.09 0.52,0.52 0 0 0 0.17,-0.29 1.95,1.95 0 0 0 0,-1 0.46,0.46 0 0 0 -0.17,-0.28 0.36,0.36 0 0 0 -0.27,-0.1 0.39,0.39 0 0 0 -0.28,0.1 0.52,0.52 0 0 0 -0.17,0.28 2.33,2.33 0 0 0 0,1 0.59,0.59 0 0 0 0.17,0.29 0.43,0.43 0 0 0 0.28,0.09 z" id="path92"/>
        <path d="m 152.58,52.8 a 0.79,0.79 0 0 1 -0.64,-0.29 1.46,1.46 0 0 1 -0.23,-0.88 1.41,1.41 0 0 1 0.23,-0.87 0.84,0.84 0 0 1 1.29,0 1.35,1.35 0 0 1 0.23,0.87 1.4,1.4 0 0 1 -0.23,0.88 0.79,0.79 0 0 1 -0.65,0.29 z m 0,-0.31 a 0.41,0.41 0 0 0 0.28,-0.09 0.59,0.59 0 0 0 0.17,-0.29 1.95,1.95 0 0 0 0,-1 0.52,0.52 0 0 0 -0.17,-0.28 0.37,0.37 0 0 0 -0.28,-0.1 0.36,0.36 0 0 0 -0.27,0.1 0.52,0.52 0 0 0 -0.17,0.28 2,2 0 0 0 0,1 0.59,0.59 0 0 0 0.17,0.29 0.4,0.4 0 0 0 0.27,0.09 z" id="path94"/>
        <path d="m 154.07,52.3 a 0.28,0.28 0 0 1 0.16,0.05 0.34,0.34 0 0 1 0.1,0.13 0.48,0.48 0 0 1 0,0.18 0.53,0.53 0 0 1 -0.05,0.25 0.74,0.74 0 0 1 -0.14,0.22 0.73,0.73 0 0 1 -0.22,0.16 l -0.17,-0.15 a 0.56,0.56 0 0 0 0.17,-0.09 0.49,0.49 0 0 0 0.12,-0.13 0.37,0.37 0 0 0 0.07,-0.14 H 154 153.9 a 0.18,0.18 0 0 1 -0.08,-0.07 0.29,0.29 0 0 1 0,-0.14 0.28,0.28 0 0 1 0,-0.13 0.28,0.28 0 0 1 0.1,-0.09 0.2,0.2 0 0 1 0.15,-0.05 z" id="path96"/>
        <path d="m 155.56,52.8 a 0.8,0.8 0 0 1 -0.65,-0.29 1.46,1.46 0 0 1 -0.23,-0.88 1.41,1.41 0 0 1 0.23,-0.87 0.78,0.78 0 0 1 0.65,-0.3 0.76,0.76 0 0 1 0.64,0.3 1.35,1.35 0 0 1 0.24,0.87 1.4,1.4 0 0 1 -0.24,0.88 0.78,0.78 0 0 1 -0.64,0.29 z m 0,-0.31 a 0.4,0.4 0 0 0 0.27,-0.09 0.59,0.59 0 0 0 0.17,-0.29 1.95,1.95 0 0 0 0,-1 0.52,0.52 0 0 0 -0.17,-0.28 0.36,0.36 0 0 0 -0.27,-0.1 0.39,0.39 0 0 0 -0.28,0.1 0.52,0.52 0 0 0 -0.17,0.28 2.33,2.33 0 0 0 0,1 0.59,0.59 0 0 0 0.17,0.29 0.43,0.43 0 0 0 0.28,0.09 z" id="path98"/>
        <path d="m 157.72,52.8 a 0.78,0.78 0 0 1 -0.64,-0.29 1.4,1.4 0 0 1 -0.23,-0.88 1.35,1.35 0 0 1 0.23,-0.87 0.76,0.76 0 0 1 0.64,-0.3 0.78,0.78 0 0 1 0.65,0.3 1.35,1.35 0 0 1 0.23,0.87 1.4,1.4 0 0 1 -0.23,0.88 0.8,0.8 0 0 1 -0.65,0.29 z m 0,-0.31 a 0.43,0.43 0 0 0 0.28,-0.09 0.59,0.59 0 0 0 0.17,-0.29 1.95,1.95 0 0 0 0,-1 0.52,0.52 0 0 0 -0.17,-0.28 0.39,0.39 0 0 0 -0.28,-0.1 0.36,0.36 0 0 0 -0.27,0.1 0.46,0.46 0 0 0 -0.17,0.28 2,2 0 0 0 0,1 0.52,0.52 0 0 0 0.17,0.29 0.4,0.4 0 0 0 0.27,0.09 z" id="path100"/>
        <path d="M 160.1,51.52 V 51.3 h 1.48 l -0.07,0.22 z m 0,0.5 v -0.23 h 1.34 l -0.07,0.23 z m 1.25,-1.56 a 1.08,1.08 0 0 1 0.38,0.06 0.68,0.68 0 0 1 0.28,0.18 0.79,0.79 0 0 1 0.18,0.29 l -0.3,0.14 a 0.52,0.52 0 0 0 -0.19,-0.28 0.48,0.48 0 0 0 -0.33,-0.1 0.55,0.55 0 0 0 -0.34,0.11 0.64,0.64 0 0 0 -0.23,0.3 1.32,1.32 0 0 0 -0.08,0.47 1.22,1.22 0 0 0 0.16,0.65 0.63,0.63 0 0 0 0.84,0.12 0.54,0.54 0 0 0 0.19,-0.32 l 0.31,0.1 a 0.92,0.92 0 0 1 -0.18,0.34 0.78,0.78 0 0 1 -0.29,0.21 1,1 0 0 1 -0.39,0.07 1,1 0 0 1 -0.54,-0.14 1,1 0 0 1 -0.34,-0.4 1.73,1.73 0 0 1 -0.11,-0.63 1.54,1.54 0 0 1 0.12,-0.63 0.91,0.91 0 0 1 0.35,-0.4 0.87,0.87 0 0 1 0.51,-0.14 z" id="path102"/>
      </g>
      <g id="g130">
        <path d="m 149.62,57 h 1.74 v 0.3 a 3.05,3.05 0 0 0 -0.46,0.61 2.39,2.39 0 0 0 -0.26,0.65 3.32,3.32 0 0 0 -0.07,0.72 h -0.38 a 2.71,2.71 0 0 1 0.1,-0.75 2.6,2.6 0 0 1 0.29,-0.69 2.79,2.79 0 0 1 0.49,-0.61 l 0.07,0.09 h -1.52 z" id="path118"/>
        <path d="m 152.5,57 a 0.79,0.79 0 0 1 0.49,0.15 0.82,0.82 0 0 1 0.31,0.41 1.85,1.85 0 0 1 0.1,0.61 1.78,1.78 0 0 1 -0.11,0.66 0.81,0.81 0 0 1 -0.31,0.39 0.82,0.82 0 0 1 -0.48,0.13 0.91,0.91 0 0 1 -0.5,-0.13 0.79,0.79 0 0 1 -0.31,-0.38 l 0.35,-0.16 a 0.63,0.63 0 0 0 0.16,0.26 0.5,0.5 0 0 0 0.31,0.09 0.53,0.53 0 0 0 0.26,-0.06 0.45,0.45 0 0 0 0.18,-0.18 1,1 0 0 0 0.09,-0.28 c 0,-0.11 0,-0.24 0,-0.37 v 0 0 a 0.46,0.46 0 0 1 -0.14,0.22 0.61,0.61 0 0 1 -0.22,0.13 1,1 0 0 1 -0.25,0 0.83,0.83 0 0 1 -0.39,-0.09 0.65,0.65 0 0 1 -0.36,-0.62 0.82,0.82 0 0 1 0.1,-0.42 0.62,0.62 0 0 1 0.27,-0.26 0.89,0.89 0 0 1 0.45,-0.1 z m 0,0.33 a 0.49,0.49 0 0 0 -0.33,0.11 0.45,0.45 0 0 0 -0.12,0.33 0.36,0.36 0 0 0 0.12,0.29 0.55,0.55 0 0 0 0.56,0.06 0.46,0.46 0 0 0 0.16,-0.15 0.4,0.4 0 0 0 0.06,-0.22 0.38,0.38 0 0 0 -0.06,-0.22 0.33,0.33 0 0 0 -0.16,-0.15 0.41,0.41 0 0 0 -0.23,-0.05 z" id="path120"/>
        <path d="m 154,58.85 a 0.22,0.22 0 0 1 0.16,0 0.4,0.4 0 0 1 0.1,0.12 0.58,0.58 0 0 1 0,0.19 0.64,0.64 0 0 1 -0.05,0.24 0.64,0.64 0 0 1 -0.14,0.22 0.6,0.6 0 0 1 -0.22,0.16 l -0.17,-0.15 0.17,-0.08 a 0.74,0.74 0 0 0 0.12,-0.13 0.46,0.46 0 0 0 0.07,-0.14 v 0 0 H 154 153.9 a 0.2,0.2 0 0 1 -0.08,-0.08 0.25,0.25 0 0 1 0,-0.13 0.32,0.32 0 0 1 0,-0.14 0.28,0.28 0 0 1 0.1,-0.09 0.28,0.28 0 0 1 0.08,0.01 z" id="path122"/>
        <path d="m 155.53,57 a 0.82,0.82 0 0 1 0.5,0.15 0.86,0.86 0 0 1 0.3,0.41 1.63,1.63 0 0 1 0.1,0.61 1.8,1.8 0 0 1 -0.1,0.66 1,1 0 0 1 -0.31,0.39 0.86,0.86 0 0 1 -0.48,0.13 0.89,0.89 0 0 1 -0.5,-0.13 0.74,0.74 0 0 1 -0.31,-0.38 l 0.35,-0.16 a 0.54,0.54 0 0 0 0.16,0.26 0.45,0.45 0 0 0 0.3,0.09 0.54,0.54 0 0 0 0.27,-0.06 0.42,0.42 0 0 0 0.17,-0.18 1,1 0 0 0 0.09,-0.28 2.13,2.13 0 0 0 0,-0.37 v 0 0 a 0.45,0.45 0 0 1 -0.13,0.22 0.65,0.65 0 0 1 -0.23,0.13 1,1 0 0 1 -0.24,0 0.87,0.87 0 0 1 -0.4,-0.09 0.63,0.63 0 0 1 -0.26,-0.25 0.64,0.64 0 0 1 -0.1,-0.37 0.82,0.82 0 0 1 0.1,-0.42 0.64,0.64 0 0 1 0.28,-0.26 0.83,0.83 0 0 1 0.44,-0.1 z m 0,0.33 a 0.5,0.5 0 0 0 -0.34,0.11 0.44,0.44 0 0 0 -0.11,0.33 0.36,0.36 0 0 0 0.12,0.29 0.49,0.49 0 0 0 0.33,0.11 0.59,0.59 0 0 0 0.23,-0.05 0.43,0.43 0 0 0 0.15,-0.15 0.4,0.4 0 0 0 0.06,-0.22 0.38,0.38 0 0 0 -0.06,-0.22 0.31,0.31 0 0 0 -0.15,-0.15 0.46,0.46 0 0 0 -0.22,-0.05 z" id="path124"/>
        <path d="m 157.72,59.35 a 0.76,0.76 0 0 1 -0.64,-0.3 1.78,1.78 0 0 1 0,-1.75 0.76,0.76 0 0 1 0.64,-0.3 0.78,0.78 0 0 1 0.65,0.3 1.78,1.78 0 0 1 0,1.75 0.78,0.78 0 0 1 -0.65,0.3 z m 0,-0.31 a 0.43,0.43 0 0 0 0.28,-0.1 0.55,0.55 0 0 0 0.17,-0.29 1.53,1.53 0 0 0 0.06,-0.47 1.61,1.61 0 0 0 -0.06,-0.48 0.59,0.59 0 0 0 -0.17,-0.29 0.43,0.43 0 0 0 -0.28,-0.09 0.4,0.4 0 0 0 -0.27,0.09 0.52,0.52 0 0 0 -0.17,0.29 1.61,1.61 0 0 0 -0.06,0.48 1.53,1.53 0 0 0 0.06,0.47 0.49,0.49 0 0 0 0.17,0.29 0.41,0.41 0 0 0 0.27,0.06 z" id="path126"/>
        <path d="m 160.1,58.07 v -0.23 h 1.48 l -0.07,0.23 z m 0,0.49 v -0.22 h 1.34 l -0.07,0.22 z M 161.35,57 a 0.89,0.89 0 0 1 0.38,0.07 0.68,0.68 0 0 1 0.28,0.18 0.71,0.71 0 0 1 0.18,0.29 l -0.3,0.14 a 0.55,0.55 0 0 0 -0.19,-0.29 0.54,0.54 0 0 0 -0.33,-0.09 0.55,0.55 0 0 0 -0.34,0.1 0.64,0.64 0 0 0 -0.23,0.3 1.34,1.34 0 0 0 -0.08,0.48 1.16,1.16 0 0 0 0.16,0.64 0.56,0.56 0 0 0 0.49,0.24 0.58,0.58 0 0 0 0.35,-0.11 0.6,0.6 0 0 0 0.19,-0.33 l 0.31,0.11 a 1,1 0 0 1 -0.18,0.34 0.78,0.78 0 0 1 -0.29,0.21 1,1 0 0 1 -0.39,0.07 1,1 0 0 1 -0.54,-0.14 1,1 0 0 1 -0.34,-0.41 1.64,1.64 0 0 1 -0.11,-0.62 1.48,1.48 0 0 1 0.12,-0.63 0.94,0.94 0 0 1 0.35,-0.41 1,1 0 0 1 0.51,-0.14 z" id="path128"/>
      </g>
      <rect x="111.37" y="65.839996" width="41.41" height="3.1300001" style="fill:#f5f4ff" id="rect132"/>
      <rect x="111.37" y="70.809998" width="14.53" height="3.1300001" style="fill:#f5f4ff" id="rect134"/>
      <rect x="120.35" y="29.110001" width="32.860001" height="3.1300001" style="fill:#f5f4ff" id="rect136"/>
      <line x1="134.46001" y1="75.830002" x2="162.35001" y2="75.830002" style="fill:none;stroke:#000000;stroke-width:0.275183px;stroke-miterlimit:10;stroke-dasharray:1.10073" id="line154"/>
      <rect x="122.41" y="88.349998" width="26.16" height="3.1300001" style="fill:#f5f4ff" id="rect156"/>
      <rect x="127.17" y="93.629997" width="16.639999" height="3.1300001" style="fill:#f5f4ff" id="rect158"/>
      <rect x="108.81" y="98.910004" width="53.360001" height="3.1300001" style="fill:#f5f4ff" id="rect160"/>
      <text style="fill: rgb(51, 51, 51); font-family: &quot;Gill Sans MT&quot;; font-size: 4px; font-weight: 700; white-space: pre;" x="-5.862" y="2.931"><tspan style="text-decoration: underline solid rgba(0, 0, 0, 0.8); font-size: 4px; word-spacing: 0px;" x="113.614" y="22.303">Devis Expert-Comptable</tspan></text>
      <g id="g-1" transform="matrix(1, 0, -0.001997, 1, -0.669928, 6.106575)" style="">
        <text style="fill: rgb(51, 51, 51); font-family: Arial, sans-serif; font-size: 3.4px; font-weight: 700; white-space: pre;" x="111.903" y="46.729">Compta</text>
        <text style="fill: rgb(51, 51, 51); font-family: Arial, sans-serif; font-size: 3.4px; font-weight: 700; white-space: pre;" x="118.499" y="36.47"> </text>
      </g>
      <g id="g-2" transform="matrix(1, 0, -0.001997, 1, -0.91419, 12.640504)" style="">
        <text style="fill: rgb(51, 51, 51); font-family: Arial, sans-serif; font-size: 3.4px; font-weight: 700; white-space: pre;" x="111.903" y="46.729">Coaching</text>
        <text style="fill: rgb(51, 51, 51); font-family: Arial, sans-serif; font-size: 3.4px; font-weight: 700; white-space: pre;" x="118.499" y="36.47"> </text>
      </g>
      <path d="M 141.918 59.265 L 141.918 58.695 L 140.808 58.695 L 140.808 58.465 L 141.758 57.105 L 142.208 57.105 L 142.208 58.465 L 142.598 58.465 L 142.598 58.745 L 142.208 58.745 L 142.208 59.315 L 141.918 59.265 Z M 141.158 58.415 L 141.918 58.415 L 141.918 57.605 C 141.918 57.605 141.918 57.495 141.918 57.435 C 141.913 57.378 141.913 57.321 141.918 57.265 L 141.818 57.445 L 141.708 57.615 L 141.168 58.385 L 141.158 58.415 Z" id="path-1"/>
      <path d="M 142.082 52.948 L 142.082 51.088 C 142.007 51.165 141.919 51.23 141.822 51.278 C 141.725 51.331 141.62 51.372 141.512 51.398 L 141.442 51.078 L 141.612 51.078 L 141.812 50.978 L 142.002 50.858 C 142.057 50.821 142.105 50.773 142.142 50.718 L 142.452 50.718 L 142.452 52.998 L 142.082 52.948 Z" id="path-2"/>
      <g id="g-3" transform="matrix(1, 0, 0, 1, 2.226417, 6.754158)">
        <path d="M 147.59,46.23 V 46 l 0.55,-0.41 a 3.06,3.06 0 0 0 0.36,-0.33 1.77,1.77 0 0 0 0.19,-0.29 0.71,0.71 0 0 0 0.06,-0.28 0.44,0.44 0 0 0 -0.11,-0.3 0.48,0.48 0 0 0 -0.32,-0.11 0.44,0.44 0 0 0 -0.34,0.14 0.62,0.62 0 0 0 -0.14,0.39 l -0.33,-0.14 a 0.9,0.9 0 0 1 0.13,-0.38 0.68,0.68 0 0 1 0.28,-0.25 1.08,1.08 0 0 1 0.42,-0.08 1.21,1.21 0 0 1 0.34,0 0.67,0.67 0 0 1 0.24,0.16 0.63,0.63 0 0 1 0.16,0.23 0.82,0.82 0 0 1 0,0.28 0.94,0.94 0 0 1 -0.11,0.42 1.5,1.5 0 0 1 -0.34,0.41 4.23,4.23 0 0 1 -0.6,0.45 h 1.09 v 0.32 z" id="path-3"/>
        <path d="m 150.39,43.92 a 0.89,0.89 0 0 1 0.5,0.14 1,1 0 0 1 0.3,0.41 1.68,1.68 0 0 1 0.1,0.62 1.74,1.74 0 0 1 -0.1,0.65 0.78,0.78 0 0 1 -0.31,0.39 0.85,0.85 0 0 1 -0.48,0.14 1,1 0 0 1 -0.5,-0.13 0.81,0.81 0 0 1 -0.31,-0.39 l 0.35,-0.16 a 0.46,0.46 0 0 0 0.16,0.26 0.45,0.45 0 0 0 0.3,0.1 0.54,0.54 0 0 0 0.27,-0.06 0.58,0.58 0 0 0 0.17,-0.18 1.1,1.1 0 0 0 0.09,-0.29 2.05,2.05 0 0 0 0,-0.37 v 0 0 a 0.59,0.59 0 0 1 -0.14,0.23 0.68,0.68 0 0 1 -0.22,0.12 0.77,0.77 0 0 1 -0.25,0 0.8,0.8 0 0 1 -0.39,-0.09 0.58,0.58 0 0 1 -0.27,-0.24 0.67,0.67 0 0 1 -0.1,-0.38 0.78,0.78 0 0 1 0.1,-0.41 0.81,0.81 0 0 1 0.34,-0.28 0.94,0.94 0 0 1 0.39,-0.08 z m 0,0.32 a 0.45,0.45 0 0 0 -0.34,0.12 0.49,0.49 0 0 0 -0.11,0.33 0.37,0.37 0 0 0 0.12,0.29 0.48,0.48 0 0 0 0.33,0.1 0.46,0.46 0 0 0 0.23,0 0.31,0.31 0 0 0 0.15,-0.15 0.37,0.37 0 0 0 0.06,-0.21 0.41,0.41 0 0 0 -0.06,-0.23 0.43,0.43 0 0 0 -0.15,-0.15 0.59,0.59 0 0 0 -0.22,-0.1 z" id="path-4"/>
        <path d="m 152.58,46.27 a 0.77,0.77 0 0 1 -0.64,-0.3 1.78,1.78 0 0 1 0,-1.75 0.84,0.84 0 0 1 1.29,0 1.78,1.78 0 0 1 0,1.75 0.77,0.77 0 0 1 -0.65,0.3 z m 0,-0.32 a 0.41,0.41 0 0 0 0.28,-0.09 0.59,0.59 0 0 0 0.17,-0.29 2,2 0 0 0 0,-1 0.56,0.56 0 0 0 -0.17,-0.28 0.37,0.37 0 0 0 -0.28,-0.1 0.36,0.36 0 0 0 -0.27,0.1 0.56,0.56 0 0 0 -0.17,0.28 2,2 0 0 0 0,1 0.59,0.59 0 0 0 0.17,0.29 0.4,0.4 0 0 0 0.27,0.14 z" id="path-5"/>
        <path d="M 154.705 46.27 C 154.452 46.281 154.21 46.169 154.055 45.97 C 153.748 45.427 153.748 44.763 154.055 44.22 C 154.21 44.021 154.452 43.909 154.705 43.92 C 154.955 43.909 155.194 44.021 155.345 44.22 C 155.664 44.76 155.664 45.43 155.345 45.97 C 155.194 46.169 154.955 46.281 154.705 46.27 Z M 154.705 45.95 C 154.803 45.954 154.899 45.922 154.975 45.86 C 155.058 45.782 155.117 45.681 155.145 45.57 C 155.232 45.242 155.232 44.898 155.145 44.57 C 155.117 44.462 155.058 44.364 154.975 44.29 C 154.903 44.221 154.805 44.184 154.705 44.19 C 154.602 44.185 154.501 44.221 154.425 44.29 C 154.342 44.364 154.282 44.462 154.255 44.57 C 154.182 44.899 154.182 45.241 154.255 45.57 C 154.282 45.681 154.341 45.782 154.425 45.86 C 154.497 45.94 154.597 45.99 154.705 46 L 154.705 45.95 Z" id="path-6"/>
        <path d="M 157.779 45 L 157.779 44.78 L 159.259 44.78 L 159.189 45 L 157.779 45 Z M 157.779 45.5 L 157.779 45.27 L 159.119 45.27 L 159.049 45.5 L 157.779 45.5 Z M 159.029 43.94 C 159.158 43.937 159.287 43.957 159.409 44 C 159.518 44.038 159.617 44.1 159.699 44.18 C 159.773 44.265 159.831 44.364 159.869 44.47 L 159.569 44.61 C 159.538 44.501 159.476 44.403 159.389 44.33 C 159.291 44.259 159.171 44.223 159.049 44.23 C 158.927 44.23 158.808 44.268 158.709 44.34 C 158.607 44.417 158.527 44.521 158.479 44.64 C 158.424 44.791 158.397 44.95 158.399 45.11 C 158.391 45.337 158.446 45.562 158.559 45.76 C 158.675 45.913 158.858 45.999 159.049 45.99 C 159.175 45.997 159.3 45.958 159.399 45.88 C 159.498 45.799 159.566 45.686 159.589 45.56 L 159.899 45.66 C 159.852 45.788 159.777 45.904 159.679 46 C 159.6 46.092 159.501 46.163 159.389 46.21 C 159.266 46.263 159.133 46.29 158.999 46.29 C 158.621 46.303 158.273 46.085 158.119 45.74 C 158.043 45.539 158.005 45.325 158.009 45.11 C 158.004 44.894 158.045 44.679 158.129 44.48 C 158.203 44.315 158.325 44.176 158.479 44.08 C 158.643 43.974 158.834 43.919 159.029 43.92 L 159.029 43.94 Z" id="path-7"/>
      </g>
      <text style="fill: rgb(51, 51, 51); font-family: &quot;Gill Sans MT&quot;; font-size: 6px; font-weight: 700; white-space: pre;" x="138.405" y="83.368">3419.6 €</text>
    </g>
  </g>
</svg>