<svg id="visual" viewBox="0 0 2000 1200" width="2000" height="1200" xmlns="http://www.w3.org/2000/svg" xmlns:xlink="http://www.w3.org/1999/xlink" version="1.1"><path d="M0 820L83.3 785.5C166.7 751 333.3 682 500 697.2C666.7 712.3 833.3 811.7 1000 811.2C1166.7 810.7 1333.3 710.3 1500 669.8C1666.7 629.3 1833.3 648.7 1916.7 658.3L2000 668L2000 1201L1916.7 1201C1833.3 1201 1666.7 1201 1500 1201C1333.3 1201 1166.7 1201 1000 1201C833.3 1201 666.7 1201 500 1201C333.3 1201 166.7 1201 83.3 1201L0 1201Z" fill="#2A356C" stroke-linecap="round" stroke-linejoin="miter"></path></svg>