<svg id="visual" viewBox="0 0 2000 1200" width="2000" height="1200" xmlns="http://www.w3.org/2000/svg" xmlns:xlink="http://www.w3.org/1999/xlink" version="1.1"><path d="M0 576L83.3 602.2C166.7 628.3 333.3 680.7 500 704.5C666.7 728.3 833.3 723.7 1000 704.7C1166.7 685.7 1333.3 652.3 1500 647.5C1666.7 642.7 1833.3 666.3 1916.7 678.2L2000 690L2000 1201L1916.7 1201C1833.3 1201 1666.7 1201 1500 1201C1333.3 1201 1166.7 1201 1000 1201C833.3 1201 666.7 1201 500 1201C333.3 1201 166.7 1201 83.3 1201L0 1201Z" fill="#2A356C" stroke-linecap="round" stroke-linejoin="miter"></path></svg>